{
.appVersion = "3260";
.formatVersion = 3;
DisplayStrings = (
l,
t,
i,
r
);
axes = (
{
name = Weight;
tag = wght;
},
{
name = Width;
tag = wdth;
}
);
customParameters = (
{
name = "Enforce Compatibility Check";
value = 1;
},
{
name = fsType;
value = (
);
},
{
name = isFixedPitch;
value = 1;
},
{
name = panose;
value = (
2,
0,
0,
9,
0,
0,
0,
0,
0,
0
);
},
{
name = "Use Typo Metrics";
value = 1;
}
);
date = "2021-02-26 07:42:34 +0000";
familyName = "M PLUS Code";
featurePrefixes = (
{
automatic = 1;
code = "languagesystem DFLT dflt;

languagesystem latn dflt;
languagesystem latn AZE;
languagesystem latn CRT;
languagesystem latn KAZ;
languagesystem latn TAT;
languagesystem latn TRK;
languagesystem latn ROM;
languagesystem latn MOL;
languagesystem latn CAT;
";
name = Languagesystems;
}
);
features = (
{
automatic = 1;
code = "feature locl;
feature sups;
feature frac;
feature ordn;
feature pnum;
feature tnum;
";
tag = aalt;
},
{
automatic = 1;
code = "lookup ccmp_Other_1 {
	@CombiningTopAccents = [acutecomb brevecomb breveinvertedcomb caroncomb circumflexcomb commaturnedabovecomb dblgravecomb dieresiscomb dotaccentcomb gravecomb hookabovecomb hungarumlautcomb macroncomb ringcomb tildecomb];
	lookupflag UseMarkFilteringSet @CombiningTopAccents;
	sub i' @CombiningTopAccents by idotless;
	sub j' @CombiningTopAccents by jdotless;
} ccmp_Other_1;

lookup ccmp_latn_1 {
	lookupflag 0;
	sub ldot by l periodcentered.loclCAT;
	sub lj by l j;
	sub Lj by L j;
	sub LJ by L J;
	sub nj by n j;
	sub Nj by N j;
	sub NJ by N J;
	sub dzcaron by d zcaron;
	sub Dzcaron by D zcaron;
	sub DZcaron by D Zcaron;
} ccmp_latn_1;

script latn;
lookup ccmp_latn_1;
";
tag = ccmp;
},
{
automatic = 1;
code = "script latn;
language AZE;
lookup locl_latn_0 {
	sub i by idotaccent;
} locl_latn_0;
language CRT;
lookup locl_latn_0;
language KAZ;
lookup locl_latn_0;
language TAT;
lookup locl_latn_0;
language TRK;
lookup locl_latn_0;

script latn;
language ROM;
lookup locl_latn_1 {

glyphs = (
{
color = 6;
glyphname = A;
kernLeft = A;
kernRight = A;
lastChange = "2021-05-05 04:42:54 +0000";
layers = (
{
anchors = (
{
name = bottom;
pos = (250,0);
},
{
name = ogonek;
pos = (436,0);
},
{
name = top;
pos = (250,730);
},
{
name = top_ring;
pos = (250,630);
}
);
layerId = "E27A6A66-A1F8-4E1B-8224-7C0FE77551F2";
shapes = (
{
closed = 1;
nodes = (
(102,0,l),
(248,636,l),
(252,636,l),
(398,0,l),
(480,0,l),
(299,730,l),
(201,730,l),
(20,0,l)
);
},
{
closed = 1;
nodes = (
(388,200,l),
(388,270,l),
(112,270,l),
(112,200,l)
);
}
);
vertWidth = 1000;
width = 500;
}
);
metricRight = "=|";
unicode = 65;
},
{
color = 10;
glyphname = AE;
kernLeft = A;
kernRight = E;
lastChange = "2021-05-05 04:42:54 +0000";
layers = (
{
anchors = (
{
name = bottom;
pos = (250,0);
},
{
name = top;
pos = (300,730);
}
);
layerId = "E27A6A66-A1F8-4E1B-8224-7C0FE77551F2";
shapes = (
{
closed = 1;
nodes = (
(94,0,l),
(258,636,l),
(262,636,l),
(262,0,l),
(483,0,l),
(483,70,l),
(342,70,l),
(342,351,l),
(473,351,l),
(473,421,l),
(342,421,l),
(342,660,l),
(483,660,l),
(483,730,l),
(213,730,l),
(12,0,l)
);
},
{
closed = 1;
nodes = (
(298,200,l),
(298,270,l),
(112,270,l),
(112,200,l)
);
}
);
vertWidth = 1000;
width = 500;
}
);
unicode = 198;
},
{
color = 6;
glyphname = B;
kernLeft = H;
kernRight = B;
lastChange = "2021-05-05 04:42:54 +0000";
layers = (
{
layerId = "E27A6A66-A1F8-4E1B-8224-7C0FE77551F2";
shapes = (
{
closed = 1;
nodes = (
(380,-10,o),
(465,64,o),
(465,210,cs),
(465,308,o),
(427,366,o),
(347,389,c),
(347,393,l),
(412,418,o),
(446,473,o),
(446,555,cs),
(446,679,o),
(369,740,o),
(212,740,cs),
(177,740,o),
(126,737,o),
(65,728,c),
(65,2,l),
(125,-7,o),
(178,-10,o),
(212,-10,cs)
);
},
{
closed = 1;
nodes = (
(145,43,l),
(145,687,l),
(125,655,l),
(157,664,o),
(189,668,o),
(221,668,cs),
(320,668,o),
(365,630,o),
(365,548,cs),
(365,461,o),
(315,420,o),
(210,420,cs),
(105,420,l),
(105,352,l),
(218,352,ls),
(333,352,o),
(383,310,o),
(383,210,cs),
(383,110,o),
(331,62,o),
(221,62,cs),
(189,62,o),
(159,66,o),
(125,75,c)
);
}
);
vertWidth = 1000;
width = 500;
}
);
unicode = 66;
},
{
color = 6;
glyphname = C;
kernLeft = O;
kernRight = C;
lastChange = "2024-12-27 13:04:39 +0000";
layers = (
{
anchors = (
{
name = bottom;
pos = (270,0);
},
{
name = cedi;
pos = (220,0);
},
{
name = top;
pos = (270,730);
}
);
layerId = "E27A6A66-A1F8-4E1B-8224-7C0FE77551F2";
shapes = (
{
closed = 1;
nodes = (
(349,-10,o),
(394,-5,o),
(427,5,c),
(427,80,l),
(395,69,o),
(354,62,o),
(318,62,cs),
(190,62,o),
(129,149,o),
(129,340,cs),
(129,390,ls),
(129,574,o),
(187,668,o),
(298,668,cs),
(344,668,o),
(393,656,o),
(427,639,c),
(427,714,l),
(392,731,o),
(346,740,o),
(300,740,cs),
(133,740,o),
(47,623,o),
(47,395,cs),
(47,335,ls),
(47,107,o),
(136,-10,o),
(310,-10,cs)
);
}
);
vertWidth = 1000;
width = 500;
}
);
unicode = 67;
},
{
color = 10;
glyphname = Ccedilla;
kernLeft = O;
kernRight = C;
lastChange = "2024-12-27 12:47:49 +0000";
layers = (
{
layerId = "E27A6A66-A1F8-4E1B-8224-7C0FE77551F2";
shapes = (
{
closed = 1;
nodes = (
(311,-218,o),
(353,-186,o),
(353,-130,cs),
(353,-69,o),
(315,-9,o),
(244,42,c),
(176,22,l),
(242,-24,o),
(279,-74,o),
(279,-117,cs),
(279,-144,o),
(259,-153,o),
(232,-153,cs),
(213,-153,o),
(196,-150,o),
(181,-145,c),
(181,-211,l),
(198,-216,o),
(217,-218,o),
(238,-218,cs)
);
},
{
ref = C;
}
);
width = 500;
}
);
unicode = 199;
},
{
color = 6;
glyphname = D;
kernLeft = H;
kernRight = O;
lastChange = "2021-05-05 04:42:54 +0000";
layers = (
{
anchors = (
{
name = bottom;
pos = (230,0);
},
{
name = center;
pos = (250,365);
},
{
name = top;
pos = (230,730);
}
);
layerId = "E27A6A66-A1F8-4E1B-8224-7C0FE77551F2";
shapes = (
{
closed = 1;
nodes = (
(382,-10,o),
(461,90,o),
(461,335,cs),
(461,395,ls),
(461,640,o),
(382,740,o),
(190,740,cs),
(151,740,o),
(110,736,o),
(61,728,c),
(61,2,l),
(110,-6,o),
(151,-10,o),
(190,-10,cs)
);
},
{
closed = 1;
nodes = (
(141,47,l),
(141,683,l),
(126,656,l),
(149,664,o),
(174,668,o),
(202,668,cs),
(328,668,o),
(380,587,o),
(380,390,cs),
(380,340,ls),
(380,143,o),
(328,62,o),
(202,62,cs),
(174,62,o),
(149,66,o),
(126,74,c)
);
}
);
vertWidth = 1000;
width = 500;
}
);
unicode = 68;
},
{
color = 10;
glyphname = DZcaron;
kernLeft = H;
kernRight = Z;
lastChange = "2021-05-05 04:42:54 +0000";
layers = (
{
layerId = "E27A6A66-A1F8-4E1B-8224-7C0FE77551F2";
shapes = (
{
closed = 1;
nodes = (
(223,-10,o),
(270,90,o),
(270,335,cs),
(270,395,ls),
(270,640,o),
(223,740,o),
(107,740,cs),
(84,740,o),
(59,736,o),
(30,728,c),
(30,2,l),
(59,-6,o),
(84,-10,o),
(107,-10,cs)
);
},
{
closed = 1;
nodes = (
(108,47,l),
(108,683,l),
(82,656,l),
(93,664,o),
(102,668,o),
(116,668,cs),
(170,668,o),
(192,587,o),
(192,390,cs),
(192,340,ls),
(192,143,o),
(170,62,o),
(116,62,cs),
(102,62,o),
(93,66,o),
(82,74,c)
);
},
{
closed = 1;
nodes = (
(490,0,l),
(490,70,l),
(346,70,l),
(346,74,l),
(490,660,l),
(490,730,l),
(265,730,l),
(265,660,l),
(409,660,l),
(409,656,l),
(265,70,l),
(265,0,l)
);
},
{
closed = 1;
nodes = (
(405,780,l),
(500,1000,l),
(416,1000,l),
(362,846,l),
(358,846,l),
(304,1000,l),
(220,1000,l),
(315,780,l)
);
}
);
vertWidth = 1000;
width = 500;
}
);
unicode = 452;
},
{
color = 10;
glyphname = Dzcaron;
kernLeft = H;
kernRight = z;
lastChange = "2021-05-05 04:42:54 +0000";
layers = (
{
layerId = "E27A6A66-A1F8-4E1B-8224-7C0FE77551F2";
shapes = (
{
closed = 1;
nodes = (
(223,-10,o),
(270,90,o),
(270,335,cs),
(270,395,ls),
(270,640,o),
(223,740,o),
(107,740,cs),
(84,740,o),
(59,736,o),
(30,728,c),
(30,2,l),
(59,-6,o),
(84,-10,o),
(107,-10,cs)
);
},
{
closed = 1;
nodes = (
(108,47,l),
(108,683,l),
(82,656,l),
(93,664,o),
(102,668,o),
(116,668,cs),
(170,668,o),
(192,587,o),
(192,390,cs),
(192,340,ls),
(192,143,o),
(170,62,o),
(116,62,cs),
(102,62,o),
(93,66,o),
(82,74,c)
);
},
{
closed = 1;
nodes = (
(490,0,l),
(490,70,l),
(372,70,l),
(372,74,l),
(490,450,l),
(490,520,l),
(290,520,l),
(290,450,l),
(408,450,l),
(408,446,l),
(290,70,l),
(290,0,l)
);
},
{
closed = 1;
nodes = (
(412,570,l),
(500,790,l),
(416,790,l),
(369,636,l),
(365,636,l),
(318,790,l),
(234,790,l),
(322,570,l)
);
}
);
vertWidth = 1000;
width = 500;
}
);
unicode = 453;
},
{
color = 10;
glyphname = Eth;
kernLeft = f;
kernRight = O;
lastChange = "2021-05-05 04:42:54 +0000";
layers = (
{
layerId = "E27A6A66-A1F8-4E1B-8224-7C0FE77551F2";
shapes = (
{
closed = 1;
nodes = (
(292,351,l),
(292,421,l),
(2,421,l),
(2,351,l)
);
},
{
alignment = -1;
pos = (4,0);
ref = D;
}
);
vertWidth = 1000;
width = 500;
}
);
unicode = 208;
},
{
color = 6;
glyphname = E;
kernLeft = H;
kernRight = E;
lastChange = "2021-05-05 04:42:54 +0000";
layers = (
{
anchors = (
{
name = bottom;
pos = (250,0);
},
{
name = ogonek;
pos = (387,0);
},
{
name = top;
pos = (250,730);
},
{
name = topleft;
pos = (20,730);
}
);
layerId = "E27A6A66-A1F8-4E1B-8224-7C0FE77551F2";
shapes = (
{
closed = 1;
nodes = (
(431,0,l),
(431,70,l),
(162,70,l),
(162,351,l),
(421,351,l),
(421,421,l),
(162,421,l),
(162,660,l),
(431,660,l),
(431,730,l),
(81,730,l),
(81,0,l)
);
}
);
vertWidth = 1000;
width = 500;
}
);
unicode = 69;
},
{
color = 10;
glyphname = Schwa;
kernLeft = O;
kernRight = O;
lastChange = "2021-05-05 04:42:54 +0000";
layers = (
{
layerId = "E27A6A66-A1F8-4E1B-8224-7C0FE77551F2";
shapes = (
{
closed = 1;
nodes = (
(397,-10,o),
(455,89,o),
(455,337,cs),
(455,393,ls),
(455,634,o),
(381,740,o),
(212,740,cs),
(166,740,o),
(116,732,o),
(74,718,c),
(74,643,l),
(117,660,o),
(161,668,o),
(206,668,cs),
(334,668,o),
(375,601,o),
(375,390,cs),
(375,340,ls),
(375,131,o),
(344,62,o),
(250,62,cs),
(156,62,o),
(125,131,o),
(125,340,cs),
(125,354,l),
(108,334,l),
(414,334,l),
(414,402,l),
(45,402,l),
(45,337,ls),
(45,89,o),
(103,-10,o),
(250,-10,cs)
);
}
);
vertWidth = 1000;
width = 500;
}
);
unicode = 399;
},
{
color = 6;
glyphname = F;
kernLeft = H;
kernRight = F;
lastChange = "2021-05-05 04:42:54 +0000";
layers = (
{
layerId = "E27A6A66-A1F8-4E1B-8224-7C0FE77551F2";
shapes = (
{
closed = 1;
nodes = (
(169,0,l),
(169,341,l),
(437,341,l),
(437,411,l),
(169,411,l),
(169,660,l),
(447,660,l),
(447,730,l),
(87,730,l),
(87,0,l)
);
}
);
vertWidth = 1000;
width = 500;
}
);
unicode = 70;
},
{
color = 6;
glyphname = G;
kernLeft = O;
kernRight = G;
lastChange = "2021-05-05 04:42:54 +0000";
layers = (
{
anchors = (
{
name = bottom;
pos = (270,0);
},
{
name = top;
pos = (270,730);
}
);
layerId = "E27A6A66-A1F8-4E1B-8224-7C0FE77551F2";
shapes = (
{
closed = 1;
nodes = (
(346,-10,o),
(404,-3,o),
(447,10,c),
(447,420,l),
(217,420,l),
(217,352,l),
(367,352,l),
(367,44,l),
(398,82,l),
(364,68,o),
(328,62,o),
(297,62,cs),
(178,62,o),
(119,154,o),
(119,340,cs),
(119,390,ls),
(119,584,o),
(178,668,o),
(314,668,cs),
(350,668,o),
(390,662,o),
(428,653,c),
(428,727,l),
(391,735,o),
(348,740,o),
(309,740,cs),
(126,740,o),
(37,627,o),
(37,395,cs),
(37,335,ls),
(37,103,o),
(124,-10,o),
(302,-10,cs)
);
}
);
vertWidth = 1000;
width = 500;
}
);
unicode = 71;
},
{
color = 6;
glyphname = H;
kernLeft = H;
kernRight = H;
lastChange = "2021-05-05 04:42:54 +0000";
layers = (
{
anchors = (
{
name = bottom;
pos = (250,0);
},
{
name = center;
pos = (250,365);
},
{
name = top;
pos = (250,730);
},
{
name = topleft;
pos = (20,730);
}
);
layerId = "E27A6A66-A1F8-4E1B-8224-7C0FE77551F2";
shapes = (
{
closed = 1;
nodes = (
(135,0,l),
(135,350,l),
(365,350,l),
(365,0,l),
(445,0,l),
(445,730,l),
(365,730,l),
(365,422,l),
(135,422,l),
(135,730,l),
(55,730,l),
(55,0,l)
);
}
);
vertWidth = 1000;
width = 500;
}
);
metricRight = "=|";
unicode = 72;
},
{
color = 10;
glyphname = Hbar;
kernLeft = W;
kernRight = W;
lastChange = "2021-05-05 04:42:54 +0000";
layers = (
{
layerId = "E27A6A66-A1F8-4E1B-8224-7C0FE77551F2";
shapes = (
{
closed = 1;
nodes = (
(495,561,l),
(495,631,l),
(5,631,l),
(5,561,l)
);
},
{
alignment = -1;
ref = H;
}
);
vertWidth = 1000;
width = 500;
}
);
unicode = 294;
},
{
color = 6;
glyphname = I;
kernLeft = I;
kernRight = I;
lastChange = "2021-05-05 04:42:54 +0000";
layers = (
{
anchors = (
{
name = bottom;
pos = (250,0);
},
{
name = ogonek;
pos = (381,0);
},
{
name = top;
pos = (250,730);
},
{
name = topleft;
pos = (20,730);
}
);
layerId = "E27A6A66-A1F8-4E1B-8224-7C0FE77551F2";
shapes = (
{
closed = 1;
nodes = (
(425,0,l),
(425,70,l),
(291,70,l),
(291,660,l),
(425,660,l),
(425,730,l),
(75,730,l),
(75,660,l),
(209,660,l),
(209,70,l),
(75,70,l),
(75,0,l)
);
}
);
vertWidth = 1000;
width = 500;
}
);
metricRight = "=|";
unicode = 73;
},
{
color = 6;
glyphname = J;
kernLeft = J;
kernRight = U;
lastChange = "2021-05-05 04:42:54 +0000";
layers = (
{
anchors = (
{
name = bottom;
pos = (235,0);
},
{
name = top;
pos = (235,730);
}
);
layerId = "E27A6A66-A1F8-4E1B-8224-7C0FE77551F2";
shapes = (
{
closed = 1;
nodes = (
(334,-10,o),
(395,52,o),
(395,195,cs),
(395,730,l),
(85,730,l),
(85,660,l),
(313,660,l),
(313,202,ls),
(313,103,o),
(275,62,o),
(182,62,cs),
(132,62,o),
(86,74,o),
(45,94,c),
(45,19,l),
(87,0,o),
(135,-10,o),
(192,-10,cs)
);
}
);
vertWidth = 1000;
width = 500;
}
);
unicode = 74;
},
{
color = 6;
glyphname = K;
kernLeft = H;
kernRight = K;
lastChange = "2021-05-05 04:42:54 +0000";
layers = (
{
anchors = (
{
name = bottom;
pos = (235,0);
},
{
name = top;
pos = (235,730);
}
);
layerId = "E27A6A66-A1F8-4E1B-8224-7C0FE77551F2";
shapes = (
{
closed = 1;
nodes = (
(155,0,l),
(155,358,l),
(159,358,l),
(385,0,l),
(475,0,l),
(230,386,l),
(475,730,l),
(384,730,l),
(159,414,l),
(155,414,l),
(155,730,l),
(75,730,l),
(75,0,l)
);
}
);
vertWidth = 1000;
width = 500;
}
);
unicode = 75;
},
{
color = 6;
glyphname = L;
kernLeft = H;
kernRight = L;
lastChange = "2021-05-05 04:42:54 +0000";
layers = (
{
anchors = (
{
name = bottom;
pos = (250,0);
},
{
name = center;
pos = (250,365);
},
{
name = pdcenter;
pos = (350,385);
},
{
name = top;
pos = (250,730);
},
{
name = topright;
pos = (320,460);
}
);
layerId = "E27A6A66-A1F8-4E1B-8224-7C0FE77551F2";
shapes = (
{
closed = 1;
nodes = (
(450,0,l),
(450,72,l),
(162,72,l),
(162,730,l),
(80,730,l),
(80,0,l)
);
}
);
vertWidth = 1000;
width = 500;
}
);
unicode = 76;
},
{
color = 10;
glyphname = LJ;
kernLeft = H;
kernRight = U;
lastChange = "2021-05-05 04:42:54 +0000";
layers = (
{
layerId = "E27A6A66-A1F8-4E1B-8224-7C0FE77551F2";
shapes = (
{
closed = 1;
nodes = (
(295,0,l),
(295,72,l),
(137,72,l),
(137,730,l),
(55,730,l),
(55,0,l)
);
},
{
closed = 1;
nodes = (
(384,-220,o),
(445,-158,o),
(445,-15,cs),
(445,730,l),
(205,730,l),
(205,660,l),
(363,660,l),
(363,-8,ls),
(363,-107,o),
(325,-148,o),
(232,-148,cs),
(182,-148,o),
(136,-136,o),
(95,-116,c),
(95,-191,l),
(137,-210,o),
(185,-220,o),
(242,-220,cs)
);
}
);
vertWidth = 1000;
width = 500;
}
);
unicode = 455;
},
{
color = 10;
glyphname = Lj;
kernLeft = H;
kernRight = g;
lastChange = "2021-05-05 04:42:54 +0000";
layers = (
{
layerId = "E27A6A66-A1F8-4E1B-8224-7C0FE77551F2";
shapes = (
{
closed = 1;
nodes = (
(295,0,l),
(295,72,l),
(137,72,l),
(137,730,l),
(55,730,l),
(55,0,l)
);
},
{
closed = 1;
nodes = (
(185,-220,l),
(360,-220,o),
(445,-134,o),
(445,43,cs),
(445,520,l),
(235,520,l),
(235,450,l),
(365,450,l),
(365,37,ls),
(365,-92,o),
(309,-150,o),
(185,-150,c)
);
},
{
closed = 1;
nodes = (
(432,614,o),
(460,640,o),
(460,682,cs),
(460,724,o),
(432,750,o),
(389,750,cs),
(346,750,o),
(318,724,o),
(318,682,cs),
(318,640,o),
(346,614,o),
(389,614,cs)
);
}
);
vertWidth = 1000;
width = 500;
}
);
unicode = 456;
},
{
color = 10;
glyphname = Lslash;
kernLeft = t;
kernRight = L;
lastChange = "2021-05-05 04:42:54 +0000";
layers = (
{
layerId = "E27A6A66-A1F8-4E1B-8224-7C0FE77551F2";
shapes = (
{
closed = 1;
nodes = (
(350,423,l),
(350,499,l),
(10,349,l),
(10,273,l)
);
},
{
alignment = -1;
pos = (20,0);
ref = L;
}
);
width = 500;
}
);
unicode = 321;
},
{
color = 6;
glyphname = M;
kernLeft = H;
kernRight = H;
lastChange = "2021-05-05 04:42:54 +0000";
layers = (
{
layerId = "E27A6A66-A1F8-4E1B-8224-7C0FE77551F2";
shapes = (
{
closed = 1;
nodes = (
(118,0,l),
(118,626,l),
(122,626,l),
(195,140,l),
(305,140,l),
(378,626,l),
(382,626,l),
(382,0,l),
(460,0,l),
(460,730,l),
(324,730,l),
(252,229,l),
(248,229,l),
(176,730,l),
(40,730,l),
(40,0,l)
);
}
);
vertWidth = 1000;
width = 500;
}
);
metricRight = "=|";
unicode = 77;
},
{
color = 6;
glyphname = N;
kernLeft = H;
kernRight = H;
lastChange = "2021-05-05 04:42:54 +0000";
layers = (
{
anchors = (
{
name = bottom;
pos = (250,0);
},
{
name = top;
pos = (250,730);
}
);
layerId = "E27A6A66-A1F8-4E1B-8224-7C0FE77551F2";
shapes = (
{
closed = 1;
nodes = (
(135,0,l),
(135,630,l),
(139,630,l),
(315,0,l),
(445,0,l),
(445,730,l),
(365,730,l),
(365,100,l),
(361,100,l),
(185,730,l),
(55,730,l),
(55,0,l)
);
}
);
vertWidth = 1000;
width = 500;
}
);
metricRight = "=|";
unicode = 78;
},
{
color = 10;
glyphname = NJ;
kernLeft = H;
kernRight = U;
lastChange = "2021-05-05 04:42:54 +0000";
layers = (
{
layerId = "E27A6A66-A1F8-4E1B-8224-7C0FE77551F2";
shapes = (
{
closed = 1;
nodes = (
(420,-220,o),
(470,-158,o),
(470,-15,cs),
(470,730,l),
(218,730,l),
(218,454,l),
(214,454,l),
(110,730,l),
(30,730,l),
(30,0,l),
(110,0,l),
(110,526,l),
(114,526,l),
(218,250,l),
(218,0,l),
(296,0,l),
(296,660,l),
(390,660,l),
(390,-7,ls),
(390,-107,o),
(363,-148,o),
(297,-148,cs),
(261,-148,o),
(219,-136,o),
(186,-116,c),
(186,-191,l),
(221,-210,o),
(259,-220,o),
(305,-220,cs)
);
}
);
vertWidth = 1000;
width = 500;
}
);
unicode = 458;
},
{
color = 10;
glyphname = Nj;
kernLeft = H;
kernRight = g;
lastChange = "2021-05-05 04:42:54 +0000";
layers = (
{
layerId = "E27A6A66-A1F8-4E1B-8224-7C0FE77551F2";
shapes = (
{
closed = 1;
nodes = (
(231,-220,l),
(392,-220,o),
(470,-134,o),
(470,43,cs),
(470,520,l),
(296,520,l),
(296,730,l),
(218,730,l),
(218,454,l),
(214,454,l),
(110,730,l),
(30,730,l),
(30,0,l),
(110,0,l),
(110,526,l),
(114,526,l),
(218,250,l),
(218,0,l),
(296,0,l),
(296,451,l),
(392,451,l),
(392,37,ls),
(392,-91,o),
(341,-149,o),
(231,-149,c)
);
},
{
closed = 1;
nodes = (
(457,614,o),
(485,640,o),
(485,682,cs),
(485,724,o),
(457,750,o),
(414,750,cs),
(371,750,o),
(343,724,o),
(343,682,cs),
(343,640,o),
(371,614,o),
(414,614,cs)
);
}
);
vertWidth = 1000;
width = 500;
}
);
unicode = 459;
},
{
color = 10;
glyphname = Eng;
kernLeft = H;
kernRight = H;
lastChange = "2021-05-05 04:42:54 +0000";
layers = (
{
layerId = "E27A6A66-A1F8-4E1B-8224-7C0FE77551F2";
shapes = (
{
closed = 1;
nodes = (
(398,-218,o),
(445,-166,o),
(445,-39,cs),
(445,730,l),
(365,730,l),
(365,214,l),
(361,214,l),
(156,730,l),
(55,730,l),
(55,0,l),
(135,0,l),
(135,570,l),
(139,570,l),
(393,-70,l),
(365,53,l),
(365,-39,ls),
(365,-118,o),
(339,-149,o),
(271,-149,cs),
(244,-149,o),
(216,-144,o),
(191,-136,c),
(191,-205,l),
(221,-213,o),
(251,-218,o),
(286,-218,cs)
);
}
);
vertWidth = 1000;
width = 500;
}
);
unicode = 330;
},
{
color = 6;
glyphname = O;
kernLeft = O;
kernRight = O;
lastChange = "2021-05-05 04:42:54 +0000";
layers = (
{
anchors = (
{
name = bottom;
pos = (250,0);
},
{
name = center;
pos = (250,365);
},
{
name = ogonek;
pos = (279,0);
},
{
name = top;
pos = (250,730);
},
{
name = topleft;
pos = (20,730);
},
{
name = topright;
pos = (338,736);
}
);
layerId = "E27A6A66-A1F8-4E1B-8224-7C0FE77551F2";
shapes = (
{
closed = 1;
nodes = (
(404,-10,o),
(460,82,o),
(460,335,cs),
(460,395,ls),
(460,648,o),
(404,740,o),
(250,740,cs),
(96,740,o),
(40,648,o),
(40,395,cs),
(40,335,ls),
(40,82,o),
(96,-10,o),
(250,-10,cs)
);
},
{
closed = 1;
nodes = (
(151,62,o),
(122,125,o),
(122,340,cs),
(122,390,ls),
(122,605,o),
(151,668,o),
(250,668,cs),
(349,668,o),
(378,605,o),
(378,390,cs),
(378,340,ls),
(378,125,o),
(349,62,o),
(250,62,cs)
);
}
);
vertWidth = 1000;
width = 500;
}
);
metricRight = "=|";
unicode = 79;
},
{
color = 10;
glyphname = Ohorn;
kernLeft = O;
kernRight = O;
lastChange = "2021-05-05 04:42:54 +0000";
layers = (
{
layerId = "E27A6A66-A1F8-4E1B-8224-7C0FE77551F2";
shapes = (
{
closed = 1;
nodes = (
(451,657,o),
(500,697,o),
(500,767,cs),
(500,785,o),
(497,805,o),
(490,823,c),
(415,823,l),
(419,813,o),
(423,793,o),
(423,782,cs),
(423,747,o),
(401,726,o),
(365,726,cs),
(308,726,l),
(295,663,l),
(319,659,o),
(340,657,o),
(363,657,cs)
);
},
{
ref = O;
}
);
width = 500;
}
);
unicode = 416;
},
{
color = 10;
glyphname = Oogonek;
kernLeft = O;
kernRight = O;
lastChange = "2024-12-27 12:47:49 +0000";
layers = (
{
layerId = "E27A6A66-A1F8-4E1B-8224-7C0FE77551F2";
shapes = (
{
closed = 1;
nodes = (
(286,-218,o),
(305,-216,o),
(322,-211,c),
(322,-145,l),
(307,-150,o),
(290,-153,o),
(271,-153,cs),
(244,-153,o),
(224,-144,o),
(224,-117,cs),
(224,-81,o),
(261,-39,o),
(327,0,c),
(257,21,l),
(188,-24,o),
(150,-76,o),
(150,-130,cs),
(150,-186,o),
(192,-218,o),
(265,-218,cs)
);
},
{
ref = O;
}
);
width = 500;
}
);
unicode = 490;
},
{
color = 10;
glyphname = Oslash;
kernLeft = O;
kernRight = O;
lastChange = "2021-05-05 04:42:54 +0000";
layers = (
{
layerId = "E27A6A66-A1F8-4E1B-8224-7C0FE77551F2";
shapes = (
{
closed = 1;
nodes = (
(112,-10,l),
(462,740,l),
(388,740,l),
(38,-10,l)
);
},
{
alignment = -1;
ref = O;
}
);
vertWidth = 1000;
width = 500;
}
);
unicode = 216;
},
{
color = 10;
glyphname = OE;
kernLeft = O;
kernRight = E;
lastChange = "2024-12-27 12:47:49 +0000";
layers = (
{
layerId = "E27A6A66-A1F8-4E1B-8224-7C0FE77551F2";
shapes = (
{
closed = 1;
nodes = (
(243,-10,o),
(272,10,o),
(295,64,c),
(245,88,l),
(232,69,o),
(218,62,o),
(194,62,cs),
(120,62,o),
(97,127,o),
(97,340,cs),
(97,390,ls),
(97,603,o),
(120,668,o),
(194,668,cs),
(215,668,o),
(229,661,o),
(245,642,c),
(295,666,l),
(272,720,o),
(243,740,o),
(185,740,cs),
(60,740,o),
(15,648,o),
(15,395,cs),
(15,335,ls),
(15,82,o),
(60,-10,o),
(185,-10,cs)
);
},
{
closed = 1;
nodes = (
(485,0,l),
(485,70,l),
(321,70,l),
(321,351,l),
(477,351,l),
(477,421,l),
(321,421,l),
(321,660,l),
(485,660,l),
(485,730,l),
(241,730,l),
(241,0,l)
);
}
);
vertWidth = 1000;
width = 500;
}
);
unicode = 338;
},
{
color = 6;
glyphname = P;
kernLeft = H;
kernRight = P;
lastChange = "2021-05-05 04:42:54 +0000";
layers = (
{
layerId = "E27A6A66-A1F8-4E1B-8224-7C0FE77551F2";
shapes = (
{
closed = 1;
nodes = (
(75,0,l),
(157,0,l),
(157,688,l),
(131,660,l),
(162,665,o),
(190,668,o),
(221,668,cs),
(341,668,o),
(384,622,o),
(384,495,cs),
(384,368,o),
(341,322,o),
(221,322,cs),
(190,322,o),
(166,325,o),
(134,330,c),
(108,258,l),
(145,253,o),
(176,250,o),
(214,250,cs),
(395,250,o),
(465,318,o),
(465,495,cs),
(465,672,o),
(395,740,o),
(214,740,cs),
(176,740,o),
(134,737,o),
(75,728,c)
);
}
);
vertWidth = 1000;
width = 500;
}
);
unicode = 80;
},
{
color = 10;
glyphname = Thorn;
kernLeft = H;
kernRight = O;
lastChange = "2021-05-05 04:42:54 +0000";
layers = (
{
layerId = "E27A6A66-A1F8-4E1B-8224-7C0FE77551F2";
shapes = (
{
closed = 1;
nodes = (
(395,140,o),
(465,208,o),
(465,385,cs),
(465,562,o),
(395,630,o),
(214,630,cs),
(176,630,o),
(145,627,o),
(108,622,c),
(134,550,l),
(166,555,o),
(190,558,o),
(221,558,cs),
(341,558,o),
(384,512,o),
(384,385,cs),
(384,258,o),
(341,212,o),
(221,212,cs),
(190,212,o),
(166,215,o),
(134,220,c),
(108,148,l),
(145,143,o),
(176,140,o),
(214,140,cs)
);
},
{
closed = 1;
nodes = (
(157,0,l),
(157,730,l),
(75,730,l),
(75,0,l)
);
}
);
vertWidth = 1000;
width = 500;
}
);
unicode = 222;
},
{
color = 6;
glyphname = Q;
kernLeft = O;
kernRight = O;
lastChange = "2025-01-02 04:04:15 +0000";
layers = (
{
layerId = "E27A6A66-A1F8-4E1B-8224-7C0FE77551F2";
shapes = (
{
closed = 1;
nodes = (
(480,-140,l),
(480,-52,o),
(442,-1,o),
(371,24,c),
(371,28,l),
(434,70,o),
(460,161,o),
(460,335,cs),
(460,395,ls),
(460,648,o),
(404,740,o),
(250,740,cs),
(96,740,o),
(40,648,o),
(40,395,cs),
(40,335,ls),
(40,82,o),
(96,-10,o),
(250,-10,cs),
(354,-10,o),
(398,-42,o),
(398,-140,c)
);
},
{
closed = 1;
nodes = (
(152,62,o),
(122,124,o),
(122,340,cs),
(122,390,ls),
(122,606,o),
(152,668,o),
(250,668,cs),
(348,668,o),
(378,606,o),
(378,390,cs),
(378,340,ls),
(378,124,o),
(348,62,o),
(250,62,cs)
);
}
);
vertWidth = 1000;
width = 500;
}
);
unicode = 81;
},
{
color = 6;
glyphname = R;
kernLeft = H;
kernRight = R;
lastChange = "2021-05-05 04:42:54 +0000";
layers = (
{
anchors = (
{
name = bottom;
pos = (240,0);
},
{
name = top;
pos = (240,730);
}
);
layerId = "E27A6A66-A1F8-4E1B-8224-7C0FE77551F2";
shapes = (
{
closed = 1;
nodes = (
(70,0,l),
(150,0,l),
(150,688,l),
(126,660,l),
(162,666,o),
(189,668,o),
(216,668,cs),
(336,668,o),
(379,627,o),
(379,514,cs),
(379,401,o),
(336,360,o),
(216,360,cs),
(190,360,o),
(164,362,o),
(129,368,c),
(103,298,l),
(140,293,o),
(173,290,o),
(209,290,cs),
(390,290,o),
(460,353,o),
(460,515,cs),
(460,677,o),
(390,740,o),
(209,740,cs),
(169,740,o),
(129,737,o),
(70,728,c)
);
},
{
closed = 1;
nodes = (
(470,0,l),
(218,328,l),
(126,328,l),
(376,0,l)
);
}
);
vertWidth = 1000;
width = 500;
}
);
unicode = 82;
},
{
color = 6;
glyphname = S;
kernLeft = S;
kernRight = S;
lastChange = "2024-12-27 13:06:34 +0000";
layers = (
{
anchors = (
{
name = bottom;
pos = (250,0);
},
{
name = cedi;
pos = (215,0);
},
{
name = top;
pos = (250,730);
}
);
layerId = "E27A6A66-A1F8-4E1B-8224-7C0FE77551F2";
shapes = (
{
closed = 1;
nodes = (
(369,-10,o),
(442,52,o),
(442,177,cs),
(442,273,o),
(400,327,o),
(272,399,cs),
(167,457,o),
(134,496,o),
(134,559,cs),
(134,633,o),
(180,668,o),
(276,668,cs),
(324,668,o),
(372,668,o),
(423,656,c),
(423,723,l),
(371,735,o),
(325,740,o),
(278,740,cs),
(122,740,o),
(52,684,o),
(52,560,cs),
(52,465,o),
(93,412,o),
(223,339,cs),
(328,281,o),
(360,243,o),
(360,179,cs),
(360,97,o),
(308,62,o),
(217,62,cs),
(166,62,o),
(119,73,o),
(70,93,c),
(70,16,l),
(120,-2,o),
(172,-10,o),
(224,-10,cs)
);
}
);
vertWidth = 1000;
width = 500;
}
);
unicode = 83;
},
{
color = 10;
glyphname = Germandbls;
kernLeft = H;
kernRight = B;
lastChange = "2021-05-05 04:42:54 +0000";
layers = (
{
layerId = "E27A6A66-A1F8-4E1B-8224-7C0FE77551F2";
shapes = (
{
closed = 1;
nodes = (
(43,0,l),
(123,0,l),
(123,463,ls),
(123,598,o),
(176,668,o),
(279,668,cs),
(340,668,o),
(389,636,o),
(422,576,c),
(470,641,l),
(430,706,o),
(365,740,o),
(279,740,cs),
(124,740,o),
(43,648,o),
(43,473,cs)
);
},
{
closed = 1;
nodes = (
(419,-10,o),
(483,60,o),
(483,196,cs),
(483,322,o),
(429,385,o),
(314,391,c),
(314,395,l),
(470,641,l),
(390,654,l),
(220,390,l),
(250,326,l),
(260,326,ls),
(360,326,o),
(401,288,o),
(401,195,cs),
(401,104,o),
(362,62,o),
(279,62,cs),
(250,62,o),
(223,67,o),
(195,78,c),
(195,5,l),
(227,-6,o),
(265,-10,o),
(295,-10,cs)
);
}
);
vertWidth = 1000;
width = 500;
}
);
unicode = 7838;
},
{
color = 6;
glyphname = T;
kernLeft = T;
kernRight = T;
lastChange = "2021-05-05 04:42:54 +0000";
layers = (
{
anchors = (
{
name = bottom;
pos = (250,0);
},
{
name = cedi;
pos = (253,0);
},
{
name = center;
pos = (250,365);
},
{
name = top;
pos = (250,730);
}
);
layerId = "E27A6A66-A1F8-4E1B-8224-7C0FE77551F2";
shapes = (
{
closed = 1;
nodes = (
(291,0,l),
(291,658,l),
(460,658,l),
(460,730,l),
(40,730,l),
(40,658,l),
(209,658,l),
(209,0,l)
);
}
);
vertWidth = 1000;
width = 500;
}
);
metricRight = "=|";
unicode = 84;
},
{
color = 10;
glyphname = Tbar;
kernLeft = W;
kernRight = W;
lastChange = "2021-05-05 04:42:54 +0000";
layers = (
{
layerId = "E27A6A66-A1F8-4E1B-8224-7C0FE77551F2";
shapes = (
{
closed = 1;
nodes = (
(440,351,l),
(440,421,l),
(60,421,l),
(60,351,l)
);
},
{
alignment = -1;
ref = T;
}
);
vertWidth = 1000;
width = 500;
}
);
unicode = 358;
},
{
color = 6;
glyphname = U;
kernLeft = U;
kernRight = U;
lastChange = "2021-05-05 04:42:54 +0000";
layers = (
{
anchors = (
{
name = bottom;
pos = (250,0);
},
{
name = ogonek;
pos = (285,0);
},
{
name = top;
pos = (250,730);
},
{
name = topright;
pos = (378,730);
}
);
layerId = "E27A6A66-A1F8-4E1B-8224-7C0FE77551F2";
shapes = (
{
closed = 1;
nodes = (
(384,-10,o),
(445,54,o),
(445,195,cs),
(445,730,l),
(365,730,l),
(365,203,ls),
(365,103,o),
(332,62,o),
(250,62,cs),
(168,62,o),
(135,103,o),
(135,203,cs),
(135,730,l),
(55,730,l),
(55,195,ls),
(55,54,o),
(116,-10,o),
(250,-10,cs)
);
}
);
vertWidth = 1000;
width = 500;
}
);
metricRight = "=|";
unicode = 85;
},
{
color = 10;
glyphname = Uogonek;
kernLeft = U;
kernRight = U;
lastChange = "2024-12-27 12:47:49 +0000";
layers = (
{
layerId = "E27A6A66-A1F8-4E1B-8224-7C0FE77551F2";
shapes = (
{
closed = 1;
nodes = (
(288,-218,o),
(307,-216,o),
(324,-211,c),
(324,-145,l),
(309,-150,o),
(292,-153,o),
(273,-153,cs),
(246,-153,o),
(226,-144,o),
(226,-117,cs),
(226,-81,o),
(263,-39,o),
(329,0,c),
(259,21,l),
(190,-24,o),
(152,-76,o),
(152,-130,cs),
(152,-186,o),
(194,-218,o),
(267,-218,cs)
);
},
{
ref = U;
}
);
width = 500;
}
);
unicode = 370;
},
{
color = 6;
glyphname = V;
kernLeft = V;
kernRight = V;
lastChange = "2021-05-05 04:42:54 +0000";
layers = (
{
layerId = "E27A6A66-A1F8-4E1B-8224-7C0FE77551F2";
shapes = (
{
closed = 1;
nodes = (
(299,0,l),
(480,730,l),
(398,730,l),
(252,104,l),
(248,104,l),
(102,730,l),
(20,730,l),
(201,0,l)
);
}
);
vertWidth = 1000;
width = 500;
}
);
metricRight = "=|";
unicode = 86;
},
{
color = 6;
glyphname = W;
kernLeft = W;
kernRight = W;
lastChange = "2021-05-05 04:42:54 +0000";
layers = (
{
anchors = (
{
name = bottom;
pos = (250,0);
},
{
name = top;
pos = (250,730);
}
);
layerId = "E27A6A66-A1F8-4E1B-8224-7C0FE77551F2";
shapes = (
{
closed = 1;
nodes = (
(191,0,l),
(248,538,l),
(252,538,l),
(309,0,l),
(425,0,l),
(490,730,l),
(408,730,l),
(368,103,l),
(364,103,l),
(312,630,l),
(188,630,l),
(136,103,l),
(132,103,l),
(92,730,l),
(10,730,l),
(75,0,l)
);
}
);
vertWidth = 1000;
width = 500;
}
);
metricRight = "=|";
unicode = 87;
},
{
color = 6;
glyphname = X;
kernLeft = X;
kernRight = X;
lastChange = "2021-05-05 04:42:54 +0000";
layers = (
{
layerId = "E27A6A66-A1F8-4E1B-8224-7C0FE77551F2";
shapes = (
{
closed = 1;
nodes = (
(126,0,l),
(248,310,l),
(252,310,l),
(374,0,l),
(460,0,l),
(307,367,l),
(460,730,l),
(375,730,l),
(252,424,l),
(248,424,l),
(125,730,l),
(40,730,l),
(193,367,l),
(40,0,l)
);
}
);
vertWidth = 1000;
width = 500;
}
);
metricRight = "=|";
unicode = 88;
},
{
color = 6;
glyphname = Y;
kernLeft = Y;
kernRight = Y;
lastChange = "2021-05-05 04:42:54 +0000";
layers = (
{
anchors = (
{
name = bottom;
pos = (250,0);
},
{
name = top;
pos = (250,730);
},
{
name = topleft;
pos = (20,730);
}
);
layerId = "E27A6A66-A1F8-4E1B-8224-7C0FE77551F2";
shapes = (
{
closed = 1;
nodes = (
(291,0,l),
(291,285,l),
(485,730,l),
(402,730,l),
(252,371,l),
(248,371,l),
(98,730,l),
(15,730,l),
(209,285,l),
(209,0,l)
);
}
);
vertWidth = 1000;
width = 500;
}
);
metricRight = "=|";
unicode = 89;
},
{
color = 6;
glyphname = Z;
kernLeft = Z;
kernRight = Z;
lastChange = "2021-05-05 04:42:54 +0000";
layers = (
{
anchors = (
{
name = bottom;
pos = (250,0);
},
{
name = center;
pos = (250,365);
},
{
name = top;
pos = (250,730);
}
);
layerId = "E27A6A66-A1F8-4E1B-8224-7C0FE77551F2";
shapes = (
{
closed = 1;
nodes = (
(430,0,l),
(430,70,l),
(160,70,l),
(160,74,l),
(430,660,l),
(430,730,l),
(70,730,l),
(70,660,l),
(340,660,l),
(340,656,l),
(70,70,l),
(70,0,l)
);
}
);
vertWidth = 1000;
width = 500;
}
);
metricRight = "=|";
unicode = 90;
},
{
color = 9;
export = 0;
glyphname = S.001;
kernLeft = S;
kernRight = S;
lastChange = "2021-05-05 04:42:54 +0000";
layers = (
{
anchors = (
{
name = bottom;
pos = (250,0);
},
{
name = cedi;
pos = (215,0);
},
{
name = top;
pos = (250,730);
}
);
layerId = "E27A6A66-A1F8-4E1B-8224-7C0FE77551F2";
shapes = (
{
closed = 1;
nodes = (
(369,-10,o),
(442,52,o),
(442,177,cs),
(442,273,o),
(400,327,o),
(272,399,cs),
(173,454,o),
(144,496,o),
(144,559,cs),
(144,633,o),
(190,668,o),
(286,668,cs),
(319,668,o),
(349,664,o),
(385,656,c),
(353,692,l),
(353,510,l),
(433,510,l),
(433,723,l),
(381,735,o),
(335,740,o),
(288,740,cs),
(132,740,o),
(62,684,o),
(62,560,cs),
(62,465,o),
(99,409,o),
(223,339,cs),
(328,281,o),
(360,243,o),
(360,179,cs),
(360,97,o),
(308,62,o),
(217,62,cs),
(166,62,o),
(119,73,o),
(70,93,c),
(70,16,l),
(120,-2,o),
(172,-10,o),
(224,-10,cs)
);
}
);
vertWidth = 1000;
width = 500;
}
);
},
{
color = 6;
glyphname = a;
kernLeft = a;
kernRight = h;
lastChange = "2024-12-27 12:47:49 +0000";
layers = (
{
anchors = (
{
name = bottom;
pos = (250,0);
},
{
name = ogonek;
pos = (384,22);
},
{
name = top;
pos = (250,520);
}
);
layerId = "E27A6A66-A1F8-4E1B-8224-7C0FE77551F2";
shapes = (
{
closed = 1;
nodes = (
(319,-10,o),
(386,2,o),
(428,22,c),
(428,340,ls),
(428,486,o),
(386,530,o),
(250,530,cs),
(185,530,o),
(121,520,o),
(75,501,c),
(75,432,l),
(134,453,o),
(184,462,o),
(242,462,cs),
(332,462,o),
(350,440,o),
(350,338,cs),
(350,40,l),
(372,86,l),
(344,68,o),
(301,57,o),
(258,57,cs),
(177,57,o),
(127,97,o),
(127,161,cs),
(127,229,o),
(183,262,o),
(299,262,cs),
(388,262,l),
(388,327,l),
(298,327,ls),
(133,327,o),
(47,270,o),
(47,160,cs),
(47,54,o),
(127,-10,o),
(261,-10,cs)
);
}
);
vertWidth = 1000;
width = 500;
}
);
unicode = 97;
},
{
color = 10;
glyphname = ae;
kernLeft = a;
kernRight = o;
lastChange = "2024-12-27 12:47:49 +0000";
layers = (
{
anchors = (
{
name = bottom;
pos = (250,0);
},
{
name = top;
pos = (250,520);
}
);
layerId = "E27A6A66-A1F8-4E1B-8224-7C0FE77551F2";
shapes = (
{
closed = 1;
nodes = (
(212,-10,o),
(250,9,o),
(272,49,c),
(276,49,l),
(297,9,o),
(330,-10,o),
(380,-10,cs),
(408,-10,o),
(440,-4,o),
(467,6,c),
(467,75,l),
(439,63,o),
(414,58,o),
(386,58,cs),
(308,58,o),
(287,97,o),
(287,243,cs),
(287,277,ls),
(287,415,o),
(304,462,o),
(353,462,cs),
(402,462,o),
(419,415,o),
(419,277,cs),
(419,268,l),
(430,291,l),
(268,291,l),
(268,226,l),
(484,226,l),
(484,280,ls),
(484,458,o),
(447,530,o),
(357,530,cs),
(311,530,o),
(282,511,o),
(263,468,c),
(259,468,l),
(240,512,o),
(207,530,o),
(143,530,cs),
(105,530,o),
(75,524,o),
(49,512,c),
(49,441,l),
(81,457,o),
(103,462,o),
(135,462,cs),
(202,462,o),
(217,439,o),
(217,338,cs),
(217,84,l),
(206,66,o),
(189,57,o),
(165,57,cs),
(115,57,o),
(85,96,o),
(85,161,cs),
(85,230,o),
(118,261,o),
(191,261,cs),
(237,261,l),
(237,328,l),
(185,328,ls),
(72,328,o),
(15,271,o),
(15,160,cs),
(15,52,o),
(68,-10,o),
(161,-10,cs)
);
}
);
vertWidth = 1000;
width = 500;
}
);
unicode = 230;
},
{
color = 6;
glyphname = b;
kernLeft = b;
kernRight = o;
lastChange = "2021-05-05 04:42:54 +0000";
layers = (
{
layerId = "E27A6A66-A1F8-4E1B-8224-7C0FE77551F2";
shapes = (
{
closed = 1;
nodes = (
(393,-10,o),
(452,67,o),
(452,270,cs),
(452,461,o),
(403,530,o),
(266,530,cs),
(209,530,o),
(155,518,o),
(111,493,c),
(136,427,l),
(178,449,o),
(217,460,o),
(260,460,cs),
(347,460,o),
(374,415,o),
(374,269,cs),
(374,112,o),
(342,60,o),
(244,60,cs),
(201,60,o),
(163,70,o),
(132,89,c),
(150,46,l),
(150,730,l),
(72,730,l),
(72,22,l),
(113,3,o),
(171,-10,o),
(236,-10,cs)
);
}
);
vertWidth = 1000;
width = 500;
}
);
unicode = 98;
},
{
color = 6;
glyphname = c;
kernLeft = o;
kernRight = c;
lastChange = "2024-12-27 13:08:08 +0000";
layers = (
{
anchors = (
{
name = bottom;
pos = (260,0);
},
{
name = cedi;
pos = (208,0);
},
{
name = top;
pos = (260,520);
}
);
layerId = "E27A6A66-A1F8-4E1B-8224-7C0FE77551F2";
shapes = (
{
closed = 1;
nodes = (
(334,-10,o),
(375,-4,o),
(411,6,c),
(411,77,l),
(372,65,o),
(337,60,o),
(300,60,cs),
(184,60,o),
(141,110,o),
(141,245,cs),
(141,275,ls),
(141,404,o),
(184,460,o),
(283,460,cs),
(335,460,o),
(379,455,o),
(411,445,c),
(411,514,l),
(378,524,o),
(335,530,o),
(293,530,cs),
(139,530,o),
(61,447,o),
(61,280,cs),
(61,240,ls),
(61,73,o),
(138,-10,o),
(292,-10,cs)
);
}
);
vertWidth = 1000;
width = 500;
}
);
unicode = 99;
},
{
color = 10;
glyphname = ccedilla;
kernLeft = o;
kernRight = c;
lastChange = "2024-12-27 12:47:49 +0000";
layers = (
{
layerId = "E27A6A66-A1F8-4E1B-8224-7C0FE77551F2";
shapes = (
{
closed = 1;
nodes = (
(299,-218,o),
(341,-186,o),
(341,-130,cs),
(341,-70,o),
(303,-9,o),
(234,39,c),
(164,18,l),
(230,-27,o),
(267,-75,o),
(267,-117,cs),
(267,-144,o),
(247,-153,o),
(220,-153,cs),
(201,-153,o),
(184,-150,o),
(169,-145,c),
(169,-211,l),
(186,-216,o),
(205,-218,o),
(226,-218,cs)
);
},
{
ref = c;
}
);
width = 500;
}
);
unicode = 231;
},
{
color = 10;
glyphname = dcaron;
kernLeft = o;
kernRight = Y;
lastChange = "2021-05-05 04:42:54 +0000";
layers = (
{
layerId = "E27A6A66-A1F8-4E1B-8224-7C0FE77551F2";
shapes = (
{
closed = 1;
nodes = (
(251,-10,o),
(300,3,o),
(334,22,c),
(334,730,l),
(254,730,l),
(254,46,l),
(288,88,l),
(265,71,o),
(235,60,o),
(199,60,cs),
(121,60,o),
(95,112,o),
(95,268,cs),
(95,413,o),
(118,460,o),
(187,460,cs),
(220,460,o),
(251,449,o),
(284,427,c),
(302,493,l),
(265,518,o),
(218,530,o),
(171,530,cs),
(57,530,o),
(15,460,o),
(15,270,cs),
(15,66,o),
(64,-10,o),
(196,-10,cs)
);
},
{
closed = 1;
nodes = (
(422,510,l),
(500,730,l),
(410,730,l),
(352,510,l)
);
}
);
vertWidth = 1000;
width = 500;
}
);
unicode = 271;
},
{
color = 10;
glyphname = dcroat;
kernLeft = o;
kernRight = W;
lastChange = "2021-05-05 04:42:54 +0000";
layers = (
{
layerId = "E27A6A66-A1F8-4E1B-8224-7C0FE77551F2";
shapes = (
{
closed = 1;
nodes = (
(495,589,l),
(495,655,l),
(95,655,l),
(95,589,l)
);
},
{
alignment = -1;
pos = (-10,0);
ref = d;
}
);
vertWidth = 1000;
width = 500;
}
);
unicode = 273;
},
{
color = 10;
glyphname = dzcaron;
kernLeft = o;
kernRight = z;
lastChange = "2021-05-05 04:42:54 +0000";
layers = (
{
layerId = "E27A6A66-A1F8-4E1B-8224-7C0FE77551F2";
shapes = (
{
closed = 1;
nodes = (
(193,-10,o),
(232,3,o),
(258,22,c),
(258,730,l),
(180,730,l),
(180,476,l),
(180,476,l),
(180,46,l),
(198,66,l),
(188,61,o),
(176,59,o),
(165,59,cs),
(110,59,o),
(91,112,o),
(91,268,cs),
(91,412,o),
(107,460,o),
(156,460,cs),
(179,460,o),
(202,450,o),
(226,427,c),
(236,493,l),
(207,518,o),
(169,530,o),
(133,530,cs),
(45,530,o),
(13,460,o),
(13,270,cs),
(13,66,o),
(50,-10,o),
(151,-10,cs)
);
},
{
closed = 1;
nodes = (
(492,0,l),
(492,70,l),
(368,70,l),
(368,74,l),
(492,450,l),
(492,520,l),
(288,520,l),
(288,450,l),
(412,450,l),
(412,446,l),
(288,70,l),
(288,0,l)
);
},
{
closed = 1;
nodes = (
(429,570,l),
(500,790,l),
(424,790,l),
(385,630,l),
(381,630,l),
(342,790,l),
(266,790,l),
(337,570,l)
);
}
);
vertWidth = 1000;
width = 500;
}
);
unicode = 454;
},
{
color = 10;
glyphname = eth;
kernLeft = o;
kernRight = o;
lastChange = "2021-05-05 04:42:54 +0000";
layers = (
{
layerId = "E27A6A66-A1F8-4E1B-8224-7C0FE77551F2";
shapes = (
{
closed = 1;
nodes = (
(380,-10,o),
(438,75,o),
(439,260,cs),
(440,566,o),
(335,727,o),
(108,770,c),
(108,702,l),
(281,663,o),
(359,527,o),
(359,268,cs),
(359,125,o),
(327,60,o),
(256,60,cs),
(166,60,o),
(136,106,o),
(136,244,cs),
(136,371,o),
(163,410,o),
(250,410,cs),
(293,410,o),
(332,399,o),
(374,377,c),
(399,443,l),
(355,468,o),
(301,480,o),
(244,480,cs),
(107,480,o),
(58,418,o),
(58,245,cs),
(58,60,o),
(112,-10,o),
(254,-10,cs)
);
},
{
closed = 1;
nodes = (
(435,669,l),
(435,741,l),
(65,572,l),
(65,500,l)
);
}
);
vertWidth = 1000;
width = 500;
}
);
unicode = 240;
},
{
color = 6;
glyphname = e;
kernLeft = o;
kernRight = o;
lastChange = "2021-05-05 04:42:54 +0000";
layers = (
{
anchors = (
{
name = bottom;
pos = (250,0);
},
{
name = ogonek;
pos = (373,6);
},
{
name = top;
pos = (250,520);
}
);
layerId = "E27A6A66-A1F8-4E1B-8224-7C0FE77551F2";
shapes = (
{
closed = 1;
nodes = (
(329,-10,o),
(377,-4,o),
(417,6,c),
(417,75,l),
(370,63,o),
(331,58,o),
(292,58,cs),
(173,58,o),
(133,105,o),
(133,243,cs),
(133,277,ls),
(133,408,o),
(167,462,o),
(250,462,cs),
(333,462,o),
(367,408,o),
(367,277,cs),
(367,268,l),
(385,291,l),
(94,291,l),
(94,226,l),
(445,226,l),
(445,280,ls),
(445,452,o),
(384,530,o),
(250,530,cs),
(116,530,o),
(55,452,o),
(55,280,cs),
(55,240,ls),
(55,70,o),
(130,-10,o),
(286,-10,cs)
);
}
);
vertWidth = 1000;
width = 500;
}
);
unicode = 101;
},
{
color = 6;
glyphname = f;
kernLeft = f;
kernRight = f;
lastChange = "2021-05-05 04:42:54 +0000";
layers = (
{
layerId = "E27A6A66-A1F8-4E1B-8224-7C0FE77551F2";
shapes = (
{
closed = 1;
nodes = (
(266,0,l),
(266,430,l),
(465,430,l),
(465,500,l),
(266,500,l),
(266,594,ls),
(266,670,o),
(296,700,o),
(367,700,cs),
(393,700,o),
(428,696,o),
(465,683,c),
(465,754,l),
(428,765,o),
(389,770,o),
(355,770,cs),
(242,770,o),
(186,713,o),
(186,597,cs),
(186,500,l),
(35,500,l),
(35,430,l),
(186,430,l),
(186,0,l)
);
}
);
vertWidth = 1000;
width = 500;
}
);
unicode = 102;
},
{
color = 6;
glyphname = g;
kernLeft = o;
kernRight = g;
lastChange = "2021-05-05 04:42:54 +0000";
layers = (
{
anchors = (
{
name = bottom;
pos = (250,-140);
},
{
name = top;
pos = (250,520);
}
);
layerId = "E27A6A66-A1F8-4E1B-8224-7C0FE77551F2";
shapes = (
{
closed = 1;
nodes = (
(83,-220,l),
(315,-220,o),
(428,-134,o),
(428,43,cs),
(428,498,l),
(384,519,o),
(329,530,o),
(263,530,cs),
(104,530,o),
(48,466,o),
(48,284,cs),
(48,91,o),
(106,20,o),
(264,20,cs),
(317,20,o),
(357,28,o),
(393,40,c),
(372,110,l),
(332,96,o),
(299,89,o),
(259,89,cs),
(157,89,o),
(126,134,o),
(126,283,cs),
(126,419,o),
(156,460,o),
(254,460,cs),
(295,460,o),
(331,453,o),
(370,435,c),
(350,480,l),
(350,38,ls),
(350,-91,o),
(266,-150,o),
(83,-150,c)
);
}
);
vertWidth = 1000;
width = 500;
}
);
unicode = 103;
},
{
color = 6;
glyphname = h;
kernLeft = b;
kernRight = h;
lastChange = "2021-05-05 04:42:54 +0000";
layers = (
{
anchors = (
{
name = bottom;
pos = (250,0);
},
{
name = center;
pos = (250,430);
},
{
name = top;
pos = (220,730);
}
);
layerId = "E27A6A66-A1F8-4E1B-8224-7C0FE77551F2";
shapes = (
{
closed = 1;
nodes = (
(359,0,l),
(437,0,l),
(437,340,ls),
(437,486,o),
(394,530,o),
(253,530,cs),
(190,530,o),
(148,522,o),
(103,500,c),
(119,430,l),
(166,453,o),
(198,460,o),
(244,460,cs),
(335,460,o),
(359,434,o),
(359,336,cs)
);
},
{
closed = 1;
nodes = (
(141,0,l),
(141,730,l),
(63,730,l),
(63,0,l)
);
}
);
vertWidth = 1000;
width = 500;
}
);
unicode = 104;
},
{
color = 10;
glyphname = hbar;
kernLeft = W;
kernRight = h;
lastChange = "2021-05-05 04:42:54 +0000";
layers = (
{
layerId = "E27A6A66-A1F8-4E1B-8224-7C0FE77551F2";
shapes = (
{
closed = 1;
nodes = (
(415,589,l),
(415,655,l),
(5,655,l),
(5,589,l)
);
},
{
ref = h;
}
);
width = 500;
}
);
unicode = 295;
},
{
color = 6;
glyphname = i;
kernLeft = l;
kernRight = l;
lastChange = "2025-01-02 03:56:24 +0000";
layers = (
{
anchors = (
{
name = bottom;
pos = (295,0);
}
);
layerId = "E27A6A66-A1F8-4E1B-8224-7C0FE77551F2";
shapes = (
{
closed = 1;
nodes = (
(257,614,o),
(285,640,o),
(285,682,cs),
(285,724,o),
(257,750,o),
(214,750,cs),
(171,750,o),
(143,724,o),
(143,682,cs),
(143,640,o),
(171,614,o),
(214,614,cs)
);
},
{
closed = 1;
nodes = (
(365,-10,o),
(402,-5,o),
(440,7,c),
(440,77,l),
(410,66,o),
(378,60,o),
(341,60,cs),
(264,60,o),
(270,85,o),
(270,164,cs),
(270,450,l),
(270,520,l),
(270,520,l),
(60,520,l),
(60,450,l),
(190,450,l),
(190,147,ls),
(190,34,o),
(207,-10,o),
(325,-10,cs)
);
}
);
vertWidth = 1000;
width = 500;
}
);
unicode = 105;
},
{
color = 10;
glyphname = idotless;
kernLeft = l;
kernRight = l;
lastChange = "2021-05-05 04:42:54 +0000";
layers = (
{
anchors = (
{
name = bottom;
pos = (220,0);
},
{
name = ogonek;
pos = (296,0);
},
{
name = top;
pos = (300,520);
}
);
layerId = "E27A6A66-A1F8-4E1B-8224-7C0FE77551F2";
shapes = (
{
closed = 1;
nodes = (
(340,0,l),
(340,520,l),
(80,520,l),
(80,450,l),
(260,450,l),
(260,0,l)
);
}
);
vertWidth = 1000;
width = 500;
}
);
unicode = 305;
},
{
color = 6;
glyphname = j;
kernLeft = l;
kernRight = g;
lastChange = "2021-05-05 04:42:54 +0000";
layers = (
{
layerId = "E27A6A66-A1F8-4E1B-8224-7C0FE77551F2";
shapes = (
{
closed = 1;
nodes = (
(80,-220,l),
(255,-220,o),
(340,-134,o),
(340,43,cs),
(340,520,l),
(80,520,l),
(80,450,l),
(260,450,l),
(260,37,ls),
(260,-92,o),
(204,-150,o),
(80,-150,c)
);
},
{
closed = 1;
nodes = (
(327,614,o),
(355,640,o),
(355,682,cs),
(355,724,o),
(327,750,o),
(284,750,cs),
(241,750,o),
(213,724,o),
(213,682,cs),
(213,640,o),
(241,614,o),
(284,614,cs)
);
}
);
vertWidth = 1000;
width = 500;
}
);
unicode = 106;
},
{
color = 10;
glyphname = jdotless;
kernLeft = l;
kernRight = g;
lastChange = "2021-05-05 04:42:54 +0000";
layers = (
{
anchors = (
{
name = bottom;
pos = (220,-140);
},
{
name = top;
pos = (300,520);
}
);
layerId = "E27A6A66-A1F8-4E1B-8224-7C0FE77551F2";
shapes = (
{
closed = 1;
nodes = (
(80,-220,l),
(255,-220,o),
(340,-134,o),
(340,43,cs),
(340,520,l),
(80,520,l),
(80,450,l),
(260,450,l),
(260,37,ls),
(260,-92,o),
(204,-150,o),
(80,-150,c)
);
}
);
vertWidth = 1000;
width = 500;
}
);
unicode = 567;
},
{
color = 6;
glyphname = k;
kernLeft = b;
kernRight = x;
lastChange = "2021-05-05 04:42:54 +0000";
layers = (
{
anchors = (
{
name = bottom;
pos = (220,0);
},
{
name = top;
pos = (220,860);
}
);
layerId = "E27A6A66-A1F8-4E1B-8224-7C0FE77551F2";
shapes = (
{
closed = 1;
nodes = (
(146,0,l),
(146,242,l),
(150,242,l),
(382,0,l),
(478,0,l),
(223,270,l),
(471,520,l),
(375,520,l),
(150,297,l),
(146,297,l),
(146,730,l),
(68,730,l),
(68,0,l)
);
}
);
vertWidth = 1000;
width = 500;
}
);
unicode = 107;
},
{
color = 10;
glyphname = kgreenlandic;
kernLeft = n;
kernRight = x;
lastChange = "2021-05-05 04:42:54 +0000";
layers = (
{
layerId = "E27A6A66-A1F8-4E1B-8224-7C0FE77551F2";
shapes = (
{
closed = 1;
nodes = (
(146,0,l),
(146,242,l),
(150,242,l),
(382,0,l),
(478,0,l),
(223,270,l),
(471,520,l),
(375,520,l),
(150,297,l),
(146,297,l),
(146,520,l),
(68,520,l),
(68,0,l)
);
}
);
vertWidth = 1000;
width = 500;
}
);
unicode = 312;
},
{
color = 6;
glyphname = l;
kernLeft = l;
kernRight = l;
lastChange = "2021-05-05 04:42:54 +0000";
layers = (
{
anchors = (
{
name = bottom;
pos = (265,0);
},
{
name = center;
pos = (265,430);
},
{
name = pdcenter;
pos = (405,385);
},
{
name = top;
pos = (240,730);
},
{
name = topright;
pos = (375,460);
}
);
layerId = "E27A6A66-A1F8-4E1B-8224-7C0FE77551F2";
shapes = (
{
closed = 1;
nodes = (
(390,-10,o),
(425,-5,o),
(460,7,c),
(460,77,l),
(433,66,o),
(405,60,o),
(371,60,cs),
(302,60,o),
(280,85,o),
(280,164,cs),
(280,730,l),
(40,730,l),
(40,660,l),
(200,660,l),
(200,147,ls),
(200,34,o),
(243,-10,o),
(353,-10,cs)
);
}
);
vertWidth = 1000;
width = 500;
}
);
unicode = 108;
},
{
color = 10;
glyphname = lj;
kernLeft = l;
kernRight = g;
lastChange = "2021-05-05 04:42:54 +0000";
layers = (
{
layerId = "E27A6A66-A1F8-4E1B-8224-7C0FE77551F2";
shapes = (
{
closed = 1;
nodes = (
(261,-10,o),
(277,-8,o),
(303,-3,c),
(303,66,l),
(277,61,o),
(264,60,o),
(252,60,cs),
(192,60,o),
(173,85,o),
(173,164,cs),
(173,730,l),
(5,730,l),
(5,660,l),
(93,660,l),
(93,147,ls),
(93,38,o),
(138,-10,o),
(240,-10,cs)
);
},
{
closed = 1;
nodes = (
(190,-220,l),
(365,-220,o),
(450,-134,o),
(450,43,cs),
(450,520,l),
(254,520,l),
(254,450,l),
(370,450,l),
(370,37,ls),
(370,-92,o),
(314,-150,o),
(190,-150,c)
);
},
{
closed = 1;
nodes = (
(437,614,o),
(465,640,o),
(465,682,cs),
(465,724,o),
(437,750,o),
(394,750,cs),
(351,750,o),
(323,724,o),
(323,682,cs),
(323,640,o),
(351,614,o),
(394,614,cs)
);
}
);
width = 500;
}
);
unicode = 457;
},
{
color = 10;
glyphname = lslash;
kernLeft = o;
kernRight = f;
lastChange = "2021-05-05 04:42:54 +0000";
layers = (
{
layerId = "E27A6A66-A1F8-4E1B-8224-7C0FE77551F2";
shapes = (
{
closed = 1;
nodes = (
(410,421,l),
(410,498,l),
(70,349,l),
(70,272,l)
);
},
{
ref = l;
}
);
width = 500;
}
);
unicode = 322;
},
{
color = 6;
glyphname = m;
kernLeft = n;
kernRight = h;
lastChange = "2021-05-11 16:05:06 +0000";
layers = (
{
layerId = "E27A6A66-A1F8-4E1B-8224-7C0FE77551F2";
shapes = (
{
closed = 1;
nodes = (
(106,0,l),
(106,444,l),
(121,455,o),
(140,460,o),
(162,460,cs),
(193,460,o),
(212,450,o),
(212,433,cs),
(212,0,l),
(288,0,l),
(288,444,l),
(302,455,o),
(317,460,o),
(337,460,cs),
(382,460,o),
(394,445,o),
(394,384,cs),
(394,0,l),
(470,0,l),
(470,383,ls),
(470,495,o),
(442,530,o),
(353,530,cs),
(310,530,o),
(284,522,o),
(250,500,c),
(222,523,o),
(200,530,o),
(157,530,cs),
(105,530,o),
(65,520,o),
(30,500,c),
(30,0,l)
);
}
);
vertWidth = 1000;
width = 500;
}
);
metricRight = "=|";
unicode = 109;
},
{
color = 6;
glyphname = n;
kernLeft = n;
kernRight = h;
lastChange = "2021-05-05 04:42:54 +0000";
layers = (
{
anchors = (
{
name = bottom;
pos = (250,0);
},
{
name = top;
pos = (250,520);
}
);
layerId = "E27A6A66-A1F8-4E1B-8224-7C0FE77551F2";
shapes = (
{
closed = 1;
nodes = (
(63,0,l),
(141,0,l),
(141,478,l),
(115,428,l),
(163,453,o),
(195,460,o),
(242,460,cs),
(334,460,o),
(359,434,o),
(359,336,cs),
(359,0,l),
(437,0,l),
(437,340,ls),
(437,486,o),
(392,530,o),
(241,530,cs),
(169,530,o),
(114,520,o),
(63,498,c)
);
}
);
vertWidth = 1000;
width = 500;
}
);
metricRight = "=|";
unicode = 110;
},
{
color = 10;
glyphname = nj;
kernLeft = n;
kernRight = g;
lastChange = "2021-05-05 04:42:54 +0000";
layers = (
{
layerId = "E27A6A66-A1F8-4E1B-8224-7C0FE77551F2";
shapes = (
{
closed = 1;
nodes = (
(23,0,l),
(101,0,l),
(101,478,l),
(79,429,l),
(101,451,o),
(121,460,o),
(146,460,cs),
(193,460,o),
(209,429,o),
(209,336,cs),
(209,0,l),
(287,0,l),
(287,340,ls),
(287,486,o),
(255,530,o),
(149,530,cs),
(99,530,o),
(59,520,o),
(23,498,c)
);
},
{
closed = 1;
nodes = (
(272,-220,l),
(407,-220,o),
(473,-134,o),
(473,43,cs),
(473,520,l),
(288,520,l),
(288,451,l),
(395,451,l),
(395,37,ls),
(395,-89,o),
(355,-149,o),
(272,-149,c)
);
},
{
closed = 1;
nodes = (
(455,614,o),
(483,640,o),
(483,682,cs),
(483,724,o),
(455,750,o),
(412,750,cs),
(369,750,o),
(341,724,o),
(341,682,cs),
(341,640,o),
(369,614,o),
(412,614,cs)
);
}
);
width = 500;
}
);
unicode = 460;
},
{
color = 10;
glyphname = eng;
kernLeft = n;
kernRight = g;
lastChange = "2021-05-05 04:42:54 +0000";
layers = (
{
layerId = "E27A6A66-A1F8-4E1B-8224-7C0FE77551F2";
shapes = (
{
closed = 1;
nodes = (
(386,-218,o),
(435,-163,o),
(435,-37,cs),
(435,340,ls),
(435,486,o),
(390,530,o),
(241,530,cs),
(170,530,o),
(115,520,o),
(65,498,c),
(65,0,l),
(143,0,l),
(143,478,l),
(117,428,l),
(165,453,o),
(196,460,o),
(242,460,cs),
(332,460,o),
(357,434,o),
(357,336,cs),
(357,-37,ls),
(357,-116,o),
(327,-148,o),
(256,-148,cs),
(231,-148,o),
(205,-143,o),
(181,-135,c),
(181,-206,l),
(210,-214,o),
(241,-218,o),
(271,-218,cs)
);
}
);
vertWidth = 1000;
width = 500;
}
);
unicode = 331;
},
{
color = 6;
glyphname = o;
kernLeft = o;
kernRight = o;
lastChange = "2021-05-05 04:42:54 +0000";
layers = (
{
anchors = (
{
name = bottom;
pos = (250,0);
},
{
name = center;
pos = (250,260);
},
{
name = ogonek;
pos = (250,0);
},
{
name = top;
pos = (250,520);
},
{
name = topright;
pos = (348,490);
}
);
layerId = "E27A6A66-A1F8-4E1B-8224-7C0FE77551F2";
shapes = (
{
closed = 1;
nodes = (
(388,-10,o),
(450,68,o),
(450,240,cs),
(450,280,ls),
(450,452,o),
(388,530,o),
(250,530,cs),
(112,530,o),
(50,452,o),
(50,280,cs),
(50,240,ls),
(50,68,o),
(112,-10,o),
(250,-10,cs)
);
},
{
closed = 1;
nodes = (
(164,60,o),
(130,113,o),
(130,245,cs),
(130,275,ls),
(130,407,o),
(164,460,o),
(250,460,cs),
(336,460,o),
(370,407,o),
(370,275,cs),
(370,245,ls),
(370,113,o),
(336,60,o),
(250,60,cs)
);
}
);
vertWidth = 1000;
width = 500;
}
);
metricRight = "=|";
unicode = 111;
},
{
color = 10;
glyphname = oogonek;
kernLeft = o;
kernRight = o;
lastChange = "2024-12-27 12:47:49 +0000";
layers = (
{
layerId = "E27A6A66-A1F8-4E1B-8224-7C0FE77551F2";
shapes = (
{
closed = 1;
nodes = (
(288,-218,o),
(307,-216,o),
(324,-211,c),
(324,-145,l),
(309,-150,o),
(292,-153,o),
(273,-153,cs),
(246,-153,o),
(226,-144,o),
(226,-117,cs),
(226,-80,o),
(263,-38,o),
(329,2,c),
(260,21,l),
(190,-24,o),
(152,-76,o),
(152,-130,cs),
(152,-186,o),
(194,-218,o),
(267,-218,cs)
);
},
{
ref = o;
}
);
width = 500;
}
);
unicode = 491;
},
{
color = 10;
glyphname = oslash;
kernLeft = o;
kernRight = o;
lastChange = "2021-05-05 04:42:54 +0000";
layers = (
{
anchors = (
{
name = top;
pos = (250,520);
}
);
layerId = "E27A6A66-A1F8-4E1B-8224-7C0FE77551F2";
shapes = (
{
closed = 1;
nodes = (
(112,-10,l),
(462,530,l),
(388,530,l),
(38,-10,l)
);
},
{
alignment = -1;
ref = o;
}
);
vertWidth = 1000;
width = 500;
}
);
unicode = 248;
},
{
color = 10;
glyphname = oe;
kernLeft = o;
kernRight = o;
lastChange = "2024-12-27 12:47:49 +0000";
layers = (
{
layerId = "E27A6A66-A1F8-4E1B-8224-7C0FE77551F2";
shapes = (
{
closed = 1;
nodes = (
(207,-10,o),
(240,13,o),
(259,67,c),
(263,67,l),
(286,14,o),
(324,-10,o),
(380,-10,cs),
(408,-10,o),
(440,-4,o),
(467,6,c),
(467,75,l),
(439,63,o),
(414,58,o),
(386,58,cs),
(308,58,o),
(287,97,o),
(287,243,cs),
(287,277,ls),
(287,415,o),
(304,462,o),
(353,462,cs),
(402,462,o),
(419,415,o),
(419,277,cs),
(419,268,l),
(430,291,l),
(268,291,l),
(268,226,l),
(484,226,l),
(484,280,ls),
(484,458,o),
(447,530,o),
(357,530,cs),
(309,530,o),
(279,509,o),
(260,460,c),
(256,460,l),
(237,509,o),
(205,530,o),
(151,530,cs),
(53,530,o),
(15,460,o),
(15,280,cs),
(15,240,ls),
(15,60,o),
(53,-10,o),
(151,-10,cs)
);
},
{
closed = 1;
nodes = (
(99,62,o),
(85,102,o),
(85,245,cs),
(85,275,ls),
(85,418,o),
(99,458,o),
(151,458,cs),
(203,458,o),
(217,418,o),
(217,275,cs),
(217,245,ls),
(217,102,o),
(203,62,o),
(151,62,cs)
);
}
);
vertWidth = 1000;
width = 500;
}
);
unicode = 339;
},
{
color = 6;
glyphname = p;
kernLeft = n;
kernRight = o;
lastChange = "2021-05-05 04:42:54 +0000";
layers = (
{
layerId = "E27A6A66-A1F8-4E1B-8224-7C0FE77551F2";
shapes = (
{
closed = 1;
nodes = (
(72,-210,l),
(150,-210,l),
(150,480,l),
(131,435,l),
(170,453,o),
(207,460,o),
(247,460,cs),
(345,460,o),
(374,416,o),
(374,269,cs),
(374,111,o),
(342,59,o),
(243,59,cs),
(206,59,o),
(169,66,o),
(130,82,c),
(108,11,l),
(143,-2,o),
(188,-10,o),
(236,-10,cs),
(392,-10,o),
(452,68,o),
(452,270,cs),
(452,463,o),
(396,530,o),
(237,530,cs),
(174,530,o),
(117,519,o),
(72,498,c)
);
}
);
vertWidth = 1000;
width = 500;
}
);
unicode = 112;
},
{
color = 10;
glyphname = thorn;
kernLeft = b;
kernRight = o;
lastChange = "2021-05-05 04:42:54 +0000";
layers = (
{
layerId = "E27A6A66-A1F8-4E1B-8224-7C0FE77551F2";
shapes = (
{
closed = 1;
nodes = (
(391,-10,o),
(452,66,o),
(452,260,cs),
(452,454,o),
(391,530,o),
(236,530,cs),
(189,530,o),
(145,523,o),
(108,509,c),
(130,438,l),
(168,453,o),
(203,461,o),
(243,461,cs),
(342,461,o),
(374,412,o),
(374,260,cs),
(374,108,o),
(342,59,o),
(243,59,cs),
(203,59,o),
(168,67,o),
(130,82,c),
(108,11,l),
(145,-3,o),
(189,-10,o),
(236,-10,cs)
);
},
{
closed = 1;
nodes = (
(150,-210,l),
(150,730,l),
(72,730,l),
(72,-210,l)
);
}
);
vertWidth = 1000;
width = 500;
}
);
unicode = 254;
},
{
color = 6;
glyphname = q;
kernLeft = o;
kernRight = u;
lastChange = "2021-05-05 04:42:54 +0000";
layers = (
{
layerId = "E27A6A66-A1F8-4E1B-8224-7C0FE77551F2";
shapes = (
{
closed = 1;
nodes = (
(428,-210,l),
(428,498,l),
(383,519,o),
(326,530,o),
(263,530,cs),
(104,530,o),
(48,463,o),
(48,270,cs),
(48,68,o),
(108,-10,o),
(264,-10,cs),
(312,-10,o),
(357,-2,o),
(392,11,c),
(370,82,l),
(331,66,o),
(294,59,o),
(257,59,cs),
(158,59,o),
(126,111,o),
(126,269,cs),
(126,416,o),
(155,460,o),
(253,460,cs),
(293,460,o),
(330,453,o),
(369,435,c),
(350,480,l),
(350,-210,l)
);
}
);
width = 500;
}
);
unicode = 113;
},
{
color = 6;
glyphname = r;
kernLeft = n;
kernRight = r;
lastChange = "2025-01-02 04:11:40 +0000";
layers = (
{
layerId = "E27A6A66-A1F8-4E1B-8224-7C0FE77551F2";
shapes = (
{
closed = 1;
nodes = (
(126,0,l),
(206,0,l),
(206,450,l),
(186,415,l),
(260,442,o),
(364,460,o),
(446,460,c),
(446,530,l),
(328,530,o),
(269,492,o),
(206,464,c),
(195,464,l),
(195,530,l),
(38,530,l),
(49,450,l),
(126,450,l)
);
}
);
vertWidth = 1000;
width = 500;
}
);
unicode = 114;
},
{
color = 6;
glyphname = s;
kernLeft = s;
kernRight = s;
lastChange = "2024-12-27 13:09:35 +0000";
layers = (
{
anchors = (
{
name = bottom;
pos = (250,0);
},
{
name = cedi;
pos = (220,0);
},
{
name = top;
pos = (250,520);
}
);
layerId = "E27A6A66-A1F8-4E1B-8224-7C0FE77551F2";
shapes = (
{
closed = 1;
nodes = (
(368,-10,o),
(435,37,o),
(435,133,cs),
(435,210,o),
(391,253,o),
(269,295,cs),
(177,327,o),
(145,354,o),
(145,393,cs),
(145,438,o),
(186,460,o),
(270,460,cs),
(316,460,o),
(354,454,o),
(420,437,c),
(420,508,l),
(353,525,o),
(312,530,o),
(265,530,cs),
(128,530,o),
(65,488,o),
(65,396,cs),
(65,318,o),
(111,273,o),
(233,234,cs),
(320,204,o),
(355,176,o),
(355,137,cs),
(355,85,o),
(314,60,o),
(229,60,cs),
(178,60,o),
(129,69,o),
(77,88,c),
(77,17,l),
(126,-2,o),
(175,-10,o),
(232,-10,cs)
);
}
);
vertWidth = 1000;
width = 500;
}
);
unicode = 115;
},
{
color = 10;
glyphname = germandbls;
kernLeft = h;
kernRight = X;
lastChange = "2024-12-27 12:47:49 +0000";
layers = (
{
layerId = "E27A6A66-A1F8-4E1B-8224-7C0FE77551F2";
shapes = (
{
closed = 1;
nodes = (
(419,-10,o),
(483,60,o),
(483,196,cs),
(483,303,o),
(444,360,o),
(356,378,c),
(356,382,l),
(403,412,o),
(425,463,o),
(425,541,cs),
(425,677,o),
(365,740,o),
(234,740,cs),
(103,740,o),
(43,675,o),
(43,533,cs),
(43,0,l),
(123,0,l),
(123,523,ls),
(123,622,o),
(158,668,o),
(234,668,cs),
(310,668,o),
(345,627,o),
(345,536,cs),
(345,450,o),
(316,409,o),
(255,409,cs),
(230,409,l),
(230,326,l),
(260,326,ls),
(360,326,o),
(401,288,o),
(401,195,cs),
(401,104,o),
(362,62,o),
(279,62,cs),
(250,62,o),
(223,67,o),
(195,78,c),
(195,5,l),
(227,-6,o),
(265,-10,o),
(295,-10,cs)
);
}
);
vertWidth = 1000;
width = 500;
}
);
unicode = 223;
},
{
color = 6;
glyphname = t;
kernLeft = f;
kernRight = c;
lastChange = "2021-05-05 04:42:54 +0000";
layers = (
{
anchors = (
{
name = bottom;
pos = (310,0);
},
{
name = cedi;
pos = (266,0);
},
{
name = center;
pos = (220,260);
},
{
name = top;
pos = (220,520);
},
{
name = topright;
pos = (472,520);
}
);
layerId = "E27A6A66-A1F8-4E1B-8224-7C0FE77551F2";
shapes = (
{
closed = 1;
nodes = (
(362,-10,o),
(399,-5,o),
(437,7,c),
(437,77,l),
(407,66,o),
(375,60,o),
(338,60,cs),
(261,60,o),
(237,85,o),
(237,164,cs),
(237,450,l),
(437,450,l),
(437,520,l),
(237,520,l),
(237,690,l),
(157,690,l),
(157,520,l),
(27,520,l),
(27,450,l),
(157,450,l),
(157,147,ls),
(157,34,o),
(204,-10,o),
(322,-10,cs)
);
}
);
vertWidth = 1000;
width = 500;
}
);
unicode = 116;
},
{
color = 10;
glyphname = tbar;
kernLeft = f;
kernRight = c;
lastChange = "2021-05-05 04:42:54 +0000";
layers = (
{
layerId = "E27A6A66-A1F8-4E1B-8224-7C0FE77551F2";
shapes = (
{
closed = 1;
nodes = (
(437,235,l),
(437,305,l),
(27,305,l),
(27,235,l)
);
},
{
ref = t;
}
);
vertWidth = 1000;
width = 500;
}
);
unicode = 359;
},
{
color = 10;
glyphname = tcedilla;
kernLeft = f;
kernRight = c;
lastChange = "2024-12-27 12:47:49 +0000";
layers = (
{
layerId = "E27A6A66-A1F8-4E1B-8224-7C0FE77551F2";
shapes = (
{
closed = 1;
nodes = (
(357,-218,o),
(399,-186,o),
(399,-130,cs),
(399,-74,o),
(361,-17,o),
(292,29,c),
(222,8,l),
(288,-34,o),
(325,-79,o),
(325,-117,cs),
(325,-144,o),
(305,-153,o),
(278,-153,cs),
(259,-153,o),
(242,-150,o),
(227,-145,c),
(227,-211,l),
(244,-216,o),
(263,-218,o),
(284,-218,cs)
);
},
{
ref = t;
}
);
width = 500;
}
);
unicode = 355;
},
{
color = 6;
glyphname = u;
kernLeft = u;
kernRight = u;
lastChange = "2021-05-05 04:42:54 +0000";
layers = (
{
anchors = (
{
name = bottom;
pos = (250,0);
},
{
name = ogonek;
pos = (391,21);
},
{
name = top;
pos = (250,520);
},
{
name = topright;
pos = (361,520);
}
);
layerId = "E27A6A66-A1F8-4E1B-8224-7C0FE77551F2";
shapes = (
{
closed = 1;
nodes = (
(330,-10,o),
(385,0,o),
(435,22,c),
(435,520,l),
(357,520,l),
(357,42,l),
(385,92,l),
(339,67,o),
(307,60,o),
(260,60,cs),
(168,60,o),
(143,87,o),
(143,184,cs),
(143,520,l),
(65,520,l),
(65,180,ls),
(65,34,o),
(110,-10,o),
(259,-10,cs)
);
}
);
vertWidth = 1000;
width = 500;
}
);
metricRight = "=|";
unicode = 117;
},
{
color = 10;
glyphname = uhorntilde;
kernLeft = u;
kernRight = v;
lastChange = "2021-05-05 04:42:54 +0000";
layers = (
{
layerId = "E27A6A66-A1F8-4E1B-8224-7C0FE77551F2";
shapes = (
{
closed = 1;
nodes = (
(399,573,o),
(438,636,o),
(438,743,c),
(360,743,l),
(360,682,o),
(349,649,o),
(329,649,cs),
(318,649,o),
(306,658,o),
(281,684,cs),
(232,734,o),
(201,753,o),
(164,753,cs),
(97,753,o),
(58,690,o),
(58,583,c),
(136,583,l),
(136,644,o),
(147,677,o),
(167,677,cs),
(178,677,o),
(190,668,o),
(215,642,cs),
(264,592,o),
(295,573,o),
(332,573,cs)
);
},
{
ref = uhorn;
}
);
width = 500;
}
);
unicode = 7919;
},
{
color = 6;
glyphname = v;
kernLeft = v;
kernRight = v;
lastChange = "2021-05-05 04:42:54 +0000";
layers = (
{
layerId = "E27A6A66-A1F8-4E1B-8224-7C0FE77551F2";
shapes = (
{
closed = 1;
nodes = (
(298,0,l),
(475,520,l),
(390,520,l),
(252,91,l),
(248,91,l),
(110,520,l),
(25,520,l),
(202,0,l)
);
}
);
vertWidth = 1000;
width = 500;
}
);
metricRight = "=|";
unicode = 118;
},
{
color = 6;
glyphname = w;
kernLeft = v;
kernRight = v;
lastChange = "2021-05-05 04:42:54 +0000";
layers = (
{
anchors = (
{
name = bottom;
pos = (250,0);
},
{
name = top;
pos = (250,520);
}
);
layerId = "E27A6A66-A1F8-4E1B-8224-7C0FE77551F2";
shapes = (
{
closed = 1;
nodes = (
(203,0,l),
(248,465,l),
(252,465,l),
(297,0,l),
(417,0,l),
(490,520,l),
(410,520,l),
(360,60,l),
(356,60,l),
(311,520,l),
(189,520,l),
(144,60,l),
(140,60,l),
(90,520,l),
(10,520,l),
(83,0,l)
);
}
);
vertWidth = 1000;
width = 500;
}
);
metricRight = "=|";
unicode = 119;
},
{
color = 6;
glyphname = x;
kernLeft = x;
kernRight = x;
lastChange = "2021-05-05 04:42:54 +0000";
layers = (
{
layerId = "E27A6A66-A1F8-4E1B-8224-7C0FE77551F2";
shapes = (
{
closed = 1;
nodes = (
(131,0,l),
(248,208,l),
(252,208,l),
(369,0,l),
(455,0,l),
(308,260,l),
(455,520,l),
(370,520,l),
(252,312,l),
(248,312,l),
(130,520,l),
(45,520,l),
(192,260,l),
(45,0,l)
);
}
);
vertWidth = 1000;
width = 500;
}
);
metricRight = "=|";
unicode = 120;
},
{
color = 6;
glyphname = y;
kernLeft = v;
kernRight = v;
lastChange = "2021-05-05 04:42:54 +0000";
layers = (
{
anchors = (
{
name = bottom;
pos = (250,0);
},
{
name = dotR;
pos = (385,-130);
},
{
name = top;
pos = (250,520);
}
);
layerId = "E27A6A66-A1F8-4E1B-8224-7C0FE77551F2";
shapes = (
{
closed = 1;
nodes = (
(55,-220,l),
(181,-220,o),
(247,-152,o),
(289,-29,cs),
(475,520,l),
(390,520,l),
(258,110,l),
(254,110,l),
(110,520,l),
(25,520,l),
(228,-19,l),
(224,21,l),
(198,-100,o),
(148,-150,o),
(55,-150,c)
);
}
);
vertWidth = 1000;
width = 500;
}
);
unicode = 121;
},
{
color = 6;
glyphname = z;
kernLeft = z;
kernRight = z;
lastChange = "2021-05-05 04:42:54 +0000";
layers = (
{
anchors = (
{
name = bottom;
pos = (250,0);
},
{
name = center;
pos = (250,260);
},
{
name = top;
pos = (250,520);
}
);
layerId = "E27A6A66-A1F8-4E1B-8224-7C0FE77551F2";
shapes = (
{
closed = 1;
nodes = (
(425,0,l),
(425,70,l),
(168,70,l),
(168,74,l),
(425,450,l),
(425,520,l),
(75,520,l),
(75,450,l),
(332,450,l),
(332,446,l),
(75,70,l),
(75,0,l)
);
}
);
vertWidth = 1000;
width = 500;
}
);
metricRight = "=|";
unicode = 122;
},
{
color = 9;
export = 0;
glyphname = a.001;
kernLeft = a;
kernRight = h;
lastChange = "2021-05-05 04:42:54 +0000";
layers = (
{
anchors = (
{
name = bottom;
pos = (250,0);
},
{
name = ogonek;
pos = (250,0);
},
{
name = top;
pos = (250,520);
}
);
layerId = "E27A6A66-A1F8-4E1B-8224-7C0FE77551F2";
shapes = (
{
closed = 1;
nodes = (
(319,-10,o),
(381,3,o),
(422,22,c),
(422,340,ls),
(422,486,o),
(378,530,o),
(235,530,cs),
(170,530,o),
(119,521,o),
(72,501,c),
(72,432,l),
(132,455,o),
(175,462,o),
(227,462,cs),
(323,462,o),
(344,439,o),
(344,338,cs),
(344,43,l),
(368,86,l),
(340,68,o),
(298,57,o),
(257,57,cs),
(178,57,o),
(130,97,o),
(130,161,cs),
(130,229,o),
(184,261,o),
(297,261,cs),
(384,261,l),
(384,328,l),
(296,328,ls),
(136,328,o),
(52,270,o),
(52,160,cs),
(52,53,o),
(130,-10,o),
(260,-10,cs)
);
}
);
vertWidth = 1000;
width = 500;
}
);
},
{
color = 9;
export = 0;
glyphname = a.002;
kernLeft = a;
kernRight = h;
lastChange = "2021-05-05 04:42:54 +0000";
layers = (
{
anchors = (
{
name = bottom;
pos = (250,0);
},
{
name = ogonek;
pos = (383,22);
},
{
name = top;
pos = (250,520);
}
);
layerId = "E27A6A66-A1F8-4E1B-8224-7C0FE77551F2";
shapes = (
{
closed = 1;
nodes = (
(322,-10,o),
(385,3,o),
(427,22,c),
(427,340,ls),
(427,486,o),
(382,530,o),
(235,530,cs),
(176,530,o),
(130,521,o),
(88,501,c),
(88,432,l),
(141,455,o),
(181,462,o),
(228,462,cs),
(327,462,o),
(349,439,o),
(349,338,cs),
(349,43,l),
(371,86,l),
(343,68,o),
(300,57,o),
(257,57,cs),
(175,57,o),
(125,97,o),
(125,161,cs),
(125,229,o),
(182,261,o),
(298,261,cs),
(388,261,l),
(388,328,l),
(298,328,ls),
(133,328,o),
(47,270,o),
(47,160,cs),
(47,53,o),
(127,-10,o),
(261,-10,cs)
);
}
);
vertWidth = 1000;
width = 500;
}
);
},
{
color = 9;
export = 0;
glyphname = b.001;
kernLeft = b;
kernRight = o;
lastChange = "2021-05-05 04:42:54 +0000";
layers = (
{
layerId = "E27A6A66-A1F8-4E1B-8224-7C0FE77551F2";
shapes = (
{
closed = 1;
nodes = (
(393,-10,o),
(452,67,o),
(452,270,cs),
(452,461,o),
(403,530,o),
(266,530,cs),
(209,530,o),
(155,518,o),
(111,493,c),
(136,427,l),
(178,449,o),
(217,460,o),
(260,460,cs),
(347,460,o),
(374,415,o),
(374,269,cs),
(374,112,o),
(342,60,o),
(244,60,cs),
(201,60,o),
(163,70,o),
(132,89,c),
(150,46,l),
(150,730,l),
(72,730,l),
(72,22,l),
(113,3,o),
(171,-10,o),
(236,-10,cs)
);
}
);
vertWidth = 1000;
width = 500;
}
);
},
{
color = 9;
export = 0;
glyphname = l.001;
kernLeft = l;
kernRight = l;
lastChange = "2021-05-05 04:42:54 +0000";
layers = (
{
anchors = (
{
name = bottom;
pos = (250,0);
},
{
name = center;
pos = (250,430);
},
{
name = pdcenter;
pos = (390,385);
},
{
name = top;
pos = (250,730);
},
{
name = topright;
pos = (360,460);
}
);
layerId = "E27A6A66-A1F8-4E1B-8224-7C0FE77551F2";
shapes = (
{
closed = 1;
nodes = (
(398,-10,o),
(436,-5,o),
(475,7,c),
(475,77,l),
(444,66,o),
(410,60,o),
(371,60,cs),
(291,60,o),
(265,85,o),
(265,164,cs),
(265,730,l),
(25,730,l),
(25,660,l),
(185,660,l),
(185,147,ls),
(185,34,o),
(233,-10,o),
(356,-10,cs)
);
}
);
vertWidth = 1000;
width = 500;
}
);
},
{
color = 9;
export = 0;
glyphname = n.001;
kernLeft = n;
kernRight = h;
lastChange = "2021-05-05 04:42:54 +0000";
layers = (
{
anchors = (
{
name = bottom;
pos = (250,0);
},
{
name = top;
pos = (250,520);
}
);
layerId = "E27A6A66-A1F8-4E1B-8224-7C0FE77551F2";
shapes = (
{
closed = 1;
nodes = (
(65,0,l),
(143,0,l),
(143,478,l),
(117,428,l),
(165,453,o),
(196,460,o),
(242,460,cs),
(332,460,o),
(357,434,o),
(357,336,cs),
(357,0,l),
(435,0,l),
(435,340,ls),
(435,486,o),
(390,530,o),
(241,530,cs),
(170,530,o),
(115,520,o),
(65,498,c)
);
}
);
vertWidth = 1000;
width = 500;
}
);
},
{
color = 9;
export = 0;
glyphname = o.001;
kernLeft = o;
kernRight = o;
lastChange = "2021-05-05 04:42:54 +0000";
layers = (
{
anchors = (
{
name = bottom;
pos = (250,0);
},
{
name = center;
pos = (250,260);
},
{
name = ogonek;
pos = (250,0);
},
{
name = top;
pos = (250,520);
},
{
name = topright;
pos = (275,530);
}
);
layerId = "E27A6A66-A1F8-4E1B-8224-7C0FE77551F2";
shapes = (
{
closed = 1;
nodes = (
(388,-10,o),
(450,68,o),
(450,240,cs),
(450,280,ls),
(450,452,o),
(388,530,o),
(250,530,cs),
(112,530,o),
(50,452,o),
(50,280,cs),
(50,240,ls),
(50,68,o),
(112,-10,o),
(250,-10,cs)
);
},
{
closed = 1;
nodes = (
(164,60,o),
(130,113,o),
(130,245,cs),
(130,275,ls),
(130,407,o),
(164,460,o),
(250,460,cs),
(336,460,o),
(370,407,o),
(370,275,cs),
(370,245,ls),
(370,113,o),
(336,60,o),
(250,60,cs)
);
}
);
vertWidth = 1000;
width = 500;
}
);
metricRight = "=|";
},
{
color = 9;
export = 0;
glyphname = s.001;
kernLeft = s;
kernRight = s;
lastChange = "2021-05-05 04:42:54 +0000";
layers = (
{
anchors = (
{
name = bottom;
pos = (250,0);
},
{
name = cedi;
pos = (250,0);
},
{
name = top;
pos = (250,520);
}
);
layerId = "E27A6A66-A1F8-4E1B-8224-7C0FE77551F2";
shapes = (
{
closed = 1;
nodes = (
(365,-10,o),
(440,39,o),
(440,132,cs),
(440,205,o),
(394,248,o),
(266,295,cs),
(170,332,o),
(140,355,o),
(140,393,cs),
(140,439,o),
(183,460,o),
(278,460,cs),
(314,460,o),
(337,457,o),
(374,449,c),
(338,496,l),
(338,355,l),
(416,355,l),
(416,509,l),
(351,525,o),
(314,530,o),
(265,530,cs),
(125,530,o),
(60,489,o),
(60,400,cs),
(60,324,o),
(108,278,o),
(237,231,cs),
(327,199,o),
(360,173,o),
(360,134,cs),
(360,86,o),
(311,60,o),
(218,60,cs),
(166,60,o),
(121,68,o),
(68,88,c),
(68,17,l),
(116,-2,o),
(167,-10,o),
(224,-10,cs)
);
}
);
vertWidth = 1000;
width = 500;
}
);
},
{
color = 9;
export = 0;
glyphname = s.002;
kernLeft = s;
kernRight = s;
lastChange = "2021-05-05 04:42:54 +0000";
layers = (
{
anchors = (
{
name = bottom;
pos = (250,0);
},
{
name = cedi;
pos = (220,0);
},
{
name = top;
pos = (250,520);
}
);
layerId = "E27A6A66-A1F8-4E1B-8224-7C0FE77551F2";
shapes = (
{
closed = 1;
nodes = (
(368,-10,o),
(435,37,o),
(435,133,cs),
(435,210,o),
(391,253,o),
(269,295,cs),
(184,325,o),
(155,354,o),
(155,393,cs),
(155,438,o),
(196,460,o),
(280,460,cs),
(311,460,o),
(338,457,o),
(388,447,c),
(352,495,l),
(352,355,l),
(430,355,l),
(430,508,l),
(363,525,o),
(322,530,o),
(275,530,cs),
(138,530,o),
(75,488,o),
(75,396,cs),
(75,318,o),
(118,271,o),
(233,234,cs),
(320,204,o),
(355,176,o),
(355,137,cs),
(355,85,o),
(314,60,o),
(229,60,cs),
(178,60,o),
(129,69,o),
(77,88,c),
(77,17,l),
(126,-2,o),
(175,-10,o),
(232,-10,cs)
);
}
);
vertWidth = 1000;
width = 500;
}
);
},
{
color = 10;
export = 0;
glyphname = m_p_l_u_s_f_o_n_t_s;
kernLeft = H;
kernRight = S;
lastChange = "2021-06-11 04:36:23 +0000";
layers = (
{
layerId = "E27A6A66-A1F8-4E1B-8224-7C0FE77551F2";
shapes = (
{
closed = 1;
nodes = (
(1214,0,l),
(1214,316,l),
(1440,316,l),
(1440,436,l),
(1214,436,l),
(1214,610,l),
(1450,610,l),
(1450,730,l),
(1070,730,l),
(1070,0,l)
);
},
{
closed = 1;
nodes = (
(1915,-10,o),
(1975,82,o),
(1975,335,cs),
(1975,395,ls),
(1975,648,o),
(1915,740,o),
(1750,740,cs),
(1585,740,o),
(1525,648,o),
(1525,395,cs),
(1525,335,ls),
(1525,82,o),
(1585,-10,o),
(1750,-10,cs)
);
},
{
closed = 1;
nodes = (
(1683,114,o),
(1669,154,o),
(1669,345,cs),
(1669,385,ls),
(1669,576,o),
(1683,616,o),
(1750,616,cs),
(1817,616,o),
(1831,576,o),
(1831,385,cs),
(1831,345,ls),
(1831,154,o),
(1817,114,o),
(1750,114,cs)
);
},
{
closed = 1;
nodes = (
(2210,0,l),
(2210,460,l),
(2214,460,l),
(2310,0,l),
(2490,0,l),
(2490,730,l),
(2350,730,l),
(2350,270,l),
(2346,270,l),
(2250,730,l),
(2070,730,l),
(2070,0,l)
);
},
{
closed = 1;
nodes = (
(2862,0,l),
(2862,606,l),
(3005,606,l),
(3005,730,l),
(2575,730,l),
(2575,606,l),
(2718,606,l),
(2718,0,l)
);
},
{
closed = 1;
nodes = (
(3372,-10,o),
(3455,62,o),
(3455,200,cs),
(3455,301,o),
(3411,364,o),
(3293,430,cs),
(3218,472,o),
(3189,501,o),
(3189,546,cs),
(3189,593,o),
(3221,614,o),
(3293,614,cs),
(3309,614,o),
(3330,613,o),
(3349,610,c),
(3290,671,l),
(3290,500,l),
(3430,500,l),
(3430,725,l),
(3382,735,o),
(3331,740,o),
(3287,740,cs),
(3126,740,o),
(3045,672,o),
(3045,538,cs),
(3045,440,o),
(3088,379,o),
(3202,317,cs),
(3281,275,o),
(3311,243,o),
(3311,192,cs),
(3311,140,o),
(3279,116,o),
(3210,116,cs),
(3160,116,o),
(3103,129,o),
(3055,149,c),
(3055,15,l),
(3101,-1,o),
(3154,-10,o),
(3211,-10,cs)
);
},
{
closed = 1;
nodes = (
(165,0,l),
(153,500,l),
(157,500,l),
(205,140,l),
(295,140,l),
(343,500,l),
(347,500,l),
(335,0,l),
(470,0,l),
(470,606,l),
(630,606,l),
(630,378,l),
(770,378,l),
(770,606,l),
(930,606,l),
(930,730,l),
(770,730,l),
(770,958,l),
(630,958,l),
(630,730,l),
(280,730,l),
(252,430,l),
(248,430,l),
(220,730,l),
(30,730,l),
(30,0,l)
);
}
);
vertWidth = 1000;
width = 500;
}
);
},
{
color = 10;
glyphname = ordfeminine;
kernLeft = asterisk;
kernRight = asterisk;
lastChange = "2021-05-05 04:42:54 +0000";
layers = (
{
layerId = "E27A6A66-A1F8-4E1B-8224-7C0FE77551F2";
shapes = (
{
closed = 1;
nodes = (
(313,285,o),
(376,295,o),
(415,311,c),
(415,579,ls),
(415,701,o),
(374,738,o),
(236,738,cs),
(176,738,o),
(129,730,o),
(89,714,c),
(89,646,l),
(143,665,o),
(175,671,o),
(228,671,cs),
(320,671,o),
(338,654,o),
(338,577,cs),
(338,329,l),
(357,372,l),
(329,358,o),
(295,351,o),
(257,351,cs),
(181,351,o),
(137,379,o),
(137,428,cs),
(137,479,o),
(187,503,o),
(294,503,cs),
(378,503,l),
(378,568,l),
(293,568,ls),
(139,568,o),
(59,520,o),
(59,428,cs),
(59,339,o),
(134,285,o),
(259,285,cs)
);
}
);
vertWidth = 1000;
width = 500;
}
);
unicode = 170;
},
{
color = 10;
glyphname = ordmasculine;
kernLeft = asterisk;
kernRight = asterisk;
lastChange = "2021-05-05 04:42:54 +0000";
layers = (
{
layerId = "E27A6A66-A1F8-4E1B-8224-7C0FE77551F2";
shapes = (
{
closed = 1;
nodes = (
(382,285,o),
(442,350,o),
(442,495,cs),
(442,528,ls),
(442,673,o),
(382,738,o),
(250,738,cs),
(118,738,o),
(58,673,o),
(58,528,cs),
(58,495,ls),
(58,350,o),
(118,285,o),
(250,285,cs)
);
},
{
closed = 1;
nodes = (
(170,354,o),
(138,393,o),
(138,499,cs),
(138,524,ls),
(138,630,o),
(170,669,o),
(250,669,cs),
(330,669,o),
(362,630,o),
(362,524,cs),
(362,499,ls),
(362,393,o),
(330,354,o),
(250,354,cs)
);
}
);
vertWidth = 1000;
width = 500;
}
);
unicode = 186;
},
{
color = 6;
glyphname = zero;
lastChange = "2022-06-08 01:47:42 +0000";
layers = (
{
layerId = "E27A6A66-A1F8-4E1B-8224-7C0FE77551F2";
shapes = (
{
closed = 1;
nodes = (
(285,198,l),
(285,538,l),
(215,538,l),
(215,198,l)
);
},
{
alignment = -1;
ref = O;
}
);
vertWidth = 1000;
width = 500;
}
);
unicode = 48;
},
{
color = 6;
glyphname = one;
lastChange = "2021-05-05 04:42:54 +0000";
layers = (
{
layerId = "E27A6A66-A1F8-4E1B-8224-7C0FE77551F2";
shapes = (
{
closed = 1;
nodes = (
(356,0,l),
(356,730,l),
(274,730,l),
(36,538,l),
(36,443,l),
(271,633,l),
(274,633,l),
(274,0,l)
);
}
);
vertWidth = 1000;
width = 500;
}
);
unicode = 49;
},
{
color = 6;
glyphname = two;
lastChange = "2021-05-05 04:42:54 +0000";
layers = (
{
layerId = "E27A6A66-A1F8-4E1B-8224-7C0FE77551F2";
shapes = (
{
closed = 1;
nodes = (
(65,0,l),
(435,0,l),
(435,70,l),
(173,70,l),
(173,74,l),
(358,285,o),
(429,417,o),
(429,543,cs),
(429,678,o),
(369,740,o),
(238,740,cs),
(172,740,o),
(118,729,o),
(65,705,c),
(65,630,l),
(122,656,o),
(171,668,o),
(222,668,cs),
(306,668,o),
(345,626,o),
(345,535,cs),
(345,424,o),
(274,309,o),
(65,70,c)
);
}
);
vertWidth = 1000;
width = 500;
}
);
unicode = 50;
},
{
color = 6;
glyphname = three;
lastChange = "2021-05-05 04:42:54 +0000";
layers = (
{
layerId = "E27A6A66-A1F8-4E1B-8224-7C0FE77551F2";
shapes = (
{
closed = 1;
nodes = (
(361,-10,o),
(440,69,o),
(440,214,cs),
(440,350,o),
(369,425,o),
(243,425,cs),
(222,425,l),
(222,429,l),
(428,660,l),
(428,730,l),
(60,730,l),
(60,660,l),
(327,660,l),
(327,656,l),
(126,430,l),
(126,360,l),
(184,360,ls),
(305,360,o),
(358,316,o),
(358,214,cs),
(358,112,o),
(305,60,o),
(202,60,cs),
(155,60,o),
(108,71,o),
(60,91,c),
(60,15,l),
(110,-2,o),
(170,-10,o),
(216,-10,cs)
);
}
);
vertWidth = 1000;
width = 500;
}
);
unicode = 51;
},
{
color = 6;
glyphname = four;
lastChange = "2021-05-05 04:42:54 +0000";
layers = (
{
layerId = "E27A6A66-A1F8-4E1B-8224-7C0FE77551F2";
shapes = (
{
closed = 1;
nodes = (
(395,0,l),
(395,145,l),
(485,145,l),
(485,215,l),
(395,215,l),
(395,730,l),
(313,730,l),
(15,215,l),
(15,145,l),
(313,145,l),
(313,0,l)
);
},
{
closed = 1;
nodes = (
(107,217,l),
(309,566,l),
(313,566,l),
(313,213,l),
(107,213,l)
);
}
);
vertWidth = 1000;
width = 500;
}
);
unicode = 52;
},
{
color = 6;
glyphname = five;
lastChange = "2021-05-05 04:42:54 +0000";
layers = (
{
layerId = "E27A6A66-A1F8-4E1B-8224-7C0FE77551F2";
shapes = (
{
closed = 1;
nodes = (
(379,-10,o),
(454,65,o),
(454,227,cs),
(454,376,o),
(390,458,o),
(275,458,cs),
(233,458,o),
(193,447,o),
(158,428,c),
(154,428,l),
(154,660,l),
(437,660,l),
(437,730,l),
(74,730,l),
(74,340,l),
(144,340,l),
(172,369,o),
(216,387,o),
(256,387,cs),
(332,387,o),
(372,334,o),
(372,227,cs),
(372,110,o),
(325,60,o),
(215,60,cs),
(163,60,o),
(122,71,o),
(74,91,c),
(74,15,l),
(125,-1,o),
(179,-10,o),
(229,-10,cs)
);
}
);
vertWidth = 1000;
width = 500;
}
);
unicode = 53;
},
{
color = 6;
glyphname = six;
lastChange = "2021-05-05 04:49:21 +0000";
layers = (
{
layerId = "E27A6A66-A1F8-4E1B-8224-7C0FE77551F2";
shapes = (
{
closed = 1;
nodes = (
(399,-10,o),
(465,70,o),
(465,245,cs),
(465,413,o),
(403,489,o),
(267,489,cs),
(215,489,o),
(173,478,o),
(142,455,c),
(138,455,l),
(164,581,o),
(254,660,o),
(381,668,c),
(381,740,l),
(147,725,o),
(35,570,o),
(35,263,cs),
(35,72,o),
(99,-10,o),
(250,-10,cs)
);
},
{
closed = 1;
nodes = (
(160,60,o),
(117,118,o),
(117,240,cs),
(117,361,o),
(162,422,o),
(252,422,cs),
(340,422,o),
(383,363,o),
(383,241,cs),
(383,119,o),
(340,60,o),
(250,60,cs)
);
}
);
vertWidth = 1000;
width = 500;
}
);
unicode = 54;
},
{
color = 6;
glyphname = seven;
lastChange = "2021-05-05 04:42:54 +0000";
layers = (
{
layerId = "E27A6A66-A1F8-4E1B-8224-7C0FE77551F2";
shapes = (
{
closed = 1;
nodes = (
(222,0,l),
(281,254,o),
(354,464,o),
(450,658,c),
(450,730,l),
(50,730,l),
(50,658,l),
(363,658,l),
(363,654,l),
(268,459,o),
(191,237,o),
(136,0,c)
);
}
);
vertWidth = 1000;
width = 500;
}
);
unicode = 55;
},
{
color = 6;
glyphname = eight;
lastChange = "2021-05-05 04:49:11 +0000";
layers = (
{
layerId = "E27A6A66-A1F8-4E1B-8224-7C0FE77551F2";
shapes = (
{
closed = 1;
nodes = (
(389,-10,o),
(475,68,o),
(475,194,cs),
(475,286,o),
(429,348,o),
(338,383,c),
(338,387,l),
(418,423,o),
(464,489,o),
(464,567,cs),
(464,672,o),
(381,740,o),
(250,740,cs),
(119,740,o),
(36,672,o),
(36,567,cs),
(36,488,o),
(83,422,o),
(162,385,c),
(162,381,l),
(70,345,o),
(25,284,o),
(25,194,cs),
(25,68,o),
(111,-10,o),
(250,-10,cs)
);
},
{
closed = 1;
nodes = (
(162,60,o),
(107,112,o),
(107,196,cs),
(107,273,o),
(154,323,o),
(246,345,c),
(348,318,o),
(393,271,o),
(393,196,cs),
(393,112,o),
(338,60,o),
(250,60,cs)
);
},
{
closed = 1;
nodes = (
(164,445,o),
(117,493,o),
(117,558,cs),
(117,627,o),
(168,670,o),
(250,670,cs),
(332,670,o),
(383,627,o),
(383,558,cs),
(383,492,o),
(334,441,o),
(251,422,c)
);
}
);
vertWidth = 1000;
width = 500;
}
);
unicode = 56;
},
{
color = 6;
export = 0;
glyphname = zero.001;
lastChange = "2022-06-08 01:24:19 +0000";
layers = (
{
layerId = "E27A6A66-A1F8-4E1B-8224-7C0FE77551F2";
shapes = (
{
closed = 1;
nodes = (
(293,316,o),
(320,343,o),
(320,385,cs),
(320,427,o),
(293,454,o),
(250,454,cs),
(207,454,o),
(180,427,o),
(180,385,cs),
(180,343,o),
(207,316,o),
(250,316,cs)
);
},
{
alignment = -1;
ref = O;
}
);
vertWidth = 1000;
width = 500;
}
);
},
{
color = 10;
glyphname = fraction;
kernLeft = A;
kernRight = V;
lastChange = "2021-05-05 04:42:54 +0000";
layers = (
{
layerId = "E27A6A66-A1F8-4E1B-8224-7C0FE77551F2";
shapes = (
{
closed = 1;
nodes = (
(460,437,l),
(460,513,l),
(40,293,l),
(40,217,l)
);
}
);
vertWidth = 1000;
width = 500;
}
);
unicode = 8260;
},
{
color = 10;
glyphname = zerosuperior;
kernLeft = superior;
kernRight = superior;
lastChange = "2021-05-05 04:42:54 +0000";
layers = (
{
layerId = "E27A6A66-A1F8-4E1B-8224-7C0FE77551F2";
shapes = (
{
closed = 1;
nodes = (
(341,405,o),
(393,461,o),
(393,557,cs),
(393,583,ls),
(393,679,o),
(341,735,o),
(250,735,cs),
(159,735,o),
(107,679,o),
(107,583,cs),
(107,557,ls),
(107,461,o),
(159,405,o),
(250,405,cs)
);
},
{
closed = 1;
nodes = (
(204,468,o),
(184,496,o),
(184,561,cs),
(184,579,ls),
(184,644,o),
(204,672,o),
(250,672,cs),
(296,672,o),
(316,644,o),
(316,579,cs),
(316,561,ls),
(316,496,o),
(296,468,o),
(250,468,cs)
);
}
);
vertWidth = 1000;
width = 500;
}
);
metricRight = "=|";
unicode = 8304;
},
{
color = 10;
glyphname = onesuperior;
kernLeft = superior;
kernRight = superior;
lastChange = "2021-05-05 04:42:54 +0000";
layers = (
{
layerId = "E27A6A66-A1F8-4E1B-8224-7C0FE77551F2";
shapes = (
{
closed = 1;
nodes = (
(308,410,l),
(308,730,l),
(248,730,l),
(89,646,l),
(89,574,l),
(226,649,l),
(230,649,l),
(230,410,l)
);
}
);
vertWidth = 1000;
width = 500;
}
);
unicode = 185;
},
{
color = 10;
glyphname = twosuperior;
kernLeft = superior;
kernRight = superior;
lastChange = "2024-12-27 12:47:49 +0000";
layers = (
{
layerId = "E27A6A66-A1F8-4E1B-8224-7C0FE77551F2";
shapes = (
{
closed = 1;
nodes = (
(112,410,l),
(364,410,l),
(364,470,l),
(234,470,l),
(234,474,l),
(318,541,o),
(360,598,o),
(360,648,cs),
(360,702,o),
(311,735,o),
(230,735,cs),
(193,735,o),
(143,728,o),
(112,719,c),
(112,656,l),
(148,666,o),
(174,670,o),
(207,670,cs),
(259,670,o),
(281,660,o),
(281,635,cs),
(281,604,o),
(246,570,o),
(112,470,c)
);
}
);
vertWidth = 1000;
width = 500;
}
);
unicode = 178;
},
{
color = 10;
glyphname = threesuperior;
kernLeft = superior;
kernRight = superior;
lastChange = "2024-12-27 12:47:49 +0000";
layers = (
{
layerId = "E27A6A66-A1F8-4E1B-8224-7C0FE77551F2";
shapes = (
{
closed = 1;
nodes = (
(316,405,o),
(367,438,o),
(367,503,cs),
(367,560,o),
(326,595,o),
(262,595,cs),
(262,595,l),
(262,599,l),
(360,670,l),
(360,730,l),
(109,730,l),
(109,670,l),
(248,670,l),
(248,666,l),
(153,598,l),
(153,543,l),
(203,543,ls),
(265,543,o),
(291,532,o),
(291,505,cs),
(291,478,o),
(264,465,o),
(210,465,cs),
(184,465,o),
(156,468,o),
(109,476,c),
(109,415,l),
(141,409,o),
(180,405,o),
(215,405,cs)
);
}
);
vertWidth = 1000;
width = 500;
}
);
unicode = 179;
},
{
color = 10;
glyphname = foursuperior;
kernLeft = superior;
kernRight = superior;
lastChange = "2021-05-05 04:42:54 +0000";
layers = (
{
layerId = "E27A6A66-A1F8-4E1B-8224-7C0FE77551F2";
shapes = (
{
closed = 1;
nodes = (
(334,410,l),
(334,461,l),
(385,461,l),
(385,521,l),
(334,521,l),
(334,730,l),
(266,730,l),
(65,521,l),
(65,461,l),
(257,461,l),
(257,410,l)
);
},
{
closed = 1;
nodes = (
(145,520,l),
(258,638,l),
(262,638,l),
(262,516,l),
(145,516,l)
);
}
);
vertWidth = 1000;
width = 500;
}
);
unicode = 8308;
},
{
color = 6;
glyphname = period;
kernLeft = ".";
kernRight = ".";
lastChange = "2021-05-05 04:42:54 +0000";
layers = (
{
layerId = "E27A6A66-A1F8-4E1B-8224-7C0FE77551F2";
shapes = (
{
closed = 1;
nodes = (
(297,-10,o),
(328,20,o),
(328,66,cs),
(328,112,o),
(297,142,o),
(250,142,cs),
(203,142,o),
(172,112,o),
(172,66,cs),
(172,20,o),
(203,-10,o),
(250,-10,cs)
);
}
);
vertWidth = 1000;
width = 500;
}
);
metricRight = "=|";
unicode = 46;
},
{
color = 6;
glyphname = comma;
kernLeft = ".";
kernRight = ".";
lastChange = "2021-05-05 04:42:54 +0000";
layers = (
{
layerId = "E27A6A66-A1F8-4E1B-8224-7C0FE77551F2";
shapes = (
{
closed = 1;
nodes = (
(215,-170,l),
(327,142,l),
(233,142,l),
(141,-170,l)
);
}
);
vertWidth = 1000;
width = 500;
}
);
unicode = 44;
},
{
color = 6;
glyphname = colon;
kernLeft = n;
kernRight = u;
lastChange = "2021-05-05 04:42:54 +0000";
layers = (
{
layerId = "E27A6A66-A1F8-4E1B-8224-7C0FE77551F2";
shapes = (
{
closed = 1;
nodes = (
(297,378,o),
(328,408,o),
(328,454,cs),
(328,500,o),
(297,530,o),
(250,530,cs),
(203,530,o),
(172,500,o),
(172,454,cs),
(172,408,o),
(203,378,o),
(250,378,cs)
);
},
{
closed = 1;
nodes = (
(297,-10,o),
(328,20,o),
(328,66,cs),
(328,112,o),
(297,142,o),
(250,142,cs),
(203,142,o),
(172,112,o),
(172,66,cs),
(172,20,o),
(203,-10,o),
(250,-10,cs)
);
}
);
vertWidth = 1000;
width = 500;
}
);
metricRight = "=|";
unicode = 58;
},
{
color = 6;
glyphname = semicolon;
kernLeft = n;
kernRight = u;
lastChange = "2021-05-05 04:42:54 +0000";
layers = (
{
layerId = "E27A6A66-A1F8-4E1B-8224-7C0FE77551F2";
shapes = (
{
closed = 1;
nodes = (
(195,-170,l),
(307,142,l),
(213,142,l),
(121,-170,l)
);
},
{
closed = 1;
nodes = (
(300,378,o),
(331,408,o),
(331,454,cs),
(331,500,o),
(300,530,o),
(253,530,cs),
(206,530,o),
(175,500,o),
(175,454,cs),
(175,408,o),
(206,378,o),
(253,378,cs)
);
}
);
vertWidth = 1000;
width = 500;
}
);
unicode = 59;
},
{
color = 6;
glyphname = exclam;
kernLeft = I;
kernRight = I;
lastChange = "2021-05-05 04:42:54 +0000";
layers = (
{
layerId = "E27A6A66-A1F8-4E1B-8224-7C0FE77551F2";
shapes = (
{
closed = 1;
nodes = (
(290,220,l),
(300,730,l),
(200,730,l),
(210,220,l)
);
},
{
closed = 1;
nodes = (
(293,-10,o),
(321,16,o),
(321,58,cs),
(321,100,o),
(293,126,o),
(250,126,cs),
(207,126,o),
(179,100,o),
(179,58,cs),
(179,16,o),
(207,-10,o),
(250,-10,cs)
);
}
);
vertWidth = 1000;
width = 500;
}
);
metricRight = "=|";
unicode = 33;
},
{
color = 6;
glyphname = question;
kernLeft = question;
kernRight = question;
lastChange = "2021-05-05 04:42:54 +0000";
layers = (
{
layerId = "E27A6A66-A1F8-4E1B-8224-7C0FE77551F2";
shapes = (
{
closed = 1;
nodes = (
(266,220,l),
(266,279,o),
(282,329,o),
(352,388,cs),
(438,463,o),
(466,510,o),
(466,579,cs),
(466,688,o),
(395,740,o),
(248,740,cs),
(174,740,o),
(98,727,o),
(36,702,c),
(36,627,l),
(103,655,o),
(159,668,o),
(229,668,cs),
(334,668,o),
(380,638,o),
(380,571,cs),
(380,525,o),
(358,492,o),
(285,430,cs),
(202,359,o),
(182,298,o),
(182,220,c)
);
},
{
closed = 1;
nodes = (
(267,-10,o),
(295,16,o),
(295,58,cs),
(295,100,o),
(267,126,o),
(224,126,cs),
(181,126,o),
(153,100,o),
(153,58,cs),
(153,16,o),
(181,-10,o),
(224,-10,cs)
);
}
);
vertWidth = 1000;
width = 500;
}
);
unicode = 63;
},
{
color = 10;
glyphname = bullet;
kernLeft = "-";
kernRight = "-";
lastChange = "2021-05-05 04:42:54 +0000";
layers = (
{
layerId = "E27A6A66-A1F8-4E1B-8224-7C0FE77551F2";
shapes = (
{
closed = 1;
nodes = (
(307,199,o),
(344,236,o),
(344,291,cs),
(344,346,o),
(307,383,o),
(250,383,cs),
(193,383,o),
(156,346,o),
(156,291,cs),
(156,236,o),
(193,199,o),
(250,199,cs)
);
}
);
vertWidth = 1000;
width = 500;
}
);
unicode = 8226;
},
{
color = 6;
glyphname = asterisk;
kernLeft = asterisk;
kernRight = asterisk;
lastChange = "2021-05-05 04:42:54 +0000";
layers = (
{
layerId = "E27A6A66-A1F8-4E1B-8224-7C0FE77551F2";
shapes = (
{
closed = 1;
nodes = (
(250,481,l),
(351,339,l),
(408,379,l),
(304,520,l),
(470,571,l),
(449,637,l),
(283,583,l),
(285,756,l),
(215,756,l),
(217,583,l),
(51,637,l),
(30,571,l),
(196,520,l),
(92,379,l),
(149,339,l)
);
}
);
vertWidth = 1000;
width = 500;
}
);
metricRight = "=|";
unicode = 42;
},
{
color = 6;
glyphname = numbersign;
kernLeft = numbersign;
kernRight = numbersign;
lastChange = "2021-05-05 04:42:54 +0000";
layers = (
{
layerId = "E27A6A66-A1F8-4E1B-8224-7C0FE77551F2";
shapes = (
{
closed = 1;
nodes = (
(152,0,l),
(175,180,l),
(277,180,l),
(254,0,l),
(332,0,l),
(355,180,l),
(428,180,l),
(428,250,l),
(364,250,l),
(397,501,l),
(465,501,l),
(465,571,l),
(406,571,l),
(427,730,l),
(349,730,l),
(328,571,l),
(226,571,l),
(247,730,l),
(169,730,l),
(148,571,l),
(73,571,l),
(73,501,l),
(139,501,l),
(106,250,l),
(35,250,l),
(35,180,l),
(97,180,l),
(74,0,l)
);
},
{
closed = 1;
nodes = (
(221,536,l),
(181,501,l),
(354,501,l),
(323,536,l),
(282,215,l),
(322,250,l),
(149,250,l),
(180,215,l)
);
}
);
vertWidth = 1000;
width = 500;
}
);
metricRight = "=|";
unicode = 35;
},
{
color = 6;
glyphname = slash;
kernLeft = A;
kernRight = V;
lastChange = "2021-05-05 04:42:54 +0000";
layers = (
{
layerId = "E27A6A66-A1F8-4E1B-8224-7C0FE77551F2";
shapes = (
{
closed = 1;
nodes = (
(116,-40,l),
(467,770,l),
(384,770,l),
(33,-40,l)
);
}
);
vertWidth = 1000;
width = 500;
}
);
metricRight = "=|";
unicode = 47;
},
{
color = 6;
glyphname = hyphen;
kernLeft = "-";
kernRight = "-";
lastChange = "2021-05-05 04:42:54 +0000";
layers = (
{
layerId = "E27A6A66-A1F8-4E1B-8224-7C0FE77551F2";
shapes = (
{
closed = 1;
nodes = (
(395,254,l),
(395,326,l),
(105,326,l),
(105,254,l)
);
}
);
vertWidth = 1000;
width = 500;
}
);
metricRight = "=|";
unicode = 45;
},
{
color = 10;
glyphname = endash;
kernLeft = dash;
kernRight = dash;
lastChange = "2021-05-05 04:42:54 +0000";
layers = (
{
layerId = "E27A6A66-A1F8-4E1B-8224-7C0FE77551F2";
shapes = (
{
closed = 1;
nodes = (
(450,253,l),
(450,327,l),
(50,327,l),
(50,253,l)
);
}
);
vertWidth = 1000;
width = 500;
}
);
unicode = 8211;
},
{
color = 10;
glyphname = emdash;
kernLeft = dash;
kernRight = dash;
lastChange = "2021-05-05 04:42:54 +0000";
layers = (
{
layerId = "E27A6A66-A1F8-4E1B-8224-7C0FE77551F2";
shapes = (
{
closed = 1;
nodes = (
(500,253,l),
(500,327,l),
(0,327,l),
(0,253,l)
);
}
);
vertWidth = 1000;
width = 500;
}
);
unicode = 8212;
},
{
color = 6;
glyphname = underscore;
kernLeft = underscore;
kernRight = underscore;
lastChange = "2022-05-01 02:02:52 +0000";
layers = (
{
layerId = "E27A6A66-A1F8-4E1B-8224-7C0FE77551F2";
shapes = (
{
closed = 1;
nodes = (
(450,-147,l),
(450,-83,l),
(50,-83,l),
(50,-147,l)
);
}
);
vertWidth = 1000;
width = 500;
}
);
unicode = 95;
},
{
color = 6;
glyphname = parenleft;
kernLeft = parenout;
kernRight = parenin;
lastChange = "2021-05-05 04:42:54 +0000";
layers = (
{
layerId = "E27A6A66-A1F8-4E1B-8224-7C0FE77551F2";
shapes = (
{
closed = 1;
nodes = (
(390,-110,l),
(296,22,o),
(252,162,o),
(252,330,cs),
(252,498,o),
(296,638,o),
(390,770,c),
(311,770,l),
(218,645,o),
(170,496,o),
(170,330,cs),
(170,165,o),
(218,15,o),
(311,-110,c)
);
}
);
vertWidth = 1000;
width = 500;
}
);
unicode = 40;
},
{
color = 6;
glyphname = braceleft;
kernLeft = "-";
kernRight = bracketin;
lastChange = "2021-05-05 04:42:54 +0000";
layers = (
{
layerId = "E27A6A66-A1F8-4E1B-8224-7C0FE77551F2";
shapes = (
{
closed = 1;
nodes = (
(418,-110,l),
(418,-40,l),
(358,-40,ls),
(282,-40,o),
(261,-16,o),
(261,70,cs),
(261,178,ls),
(261,256,o),
(235,304,o),
(180,328,c),
(180,332,l),
(235,356,o),
(261,404,o),
(261,482,cs),
(261,590,ls),
(261,676,o),
(282,700,o),
(358,700,cs),
(418,700,l),
(418,770,l),
(322,770,ls),
(226,770,o),
(185,726,o),
(185,620,cs),
(185,490,ls),
(185,410,o),
(156,367,o),
(102,367,cs),
(55,367,l),
(55,293,l),
(102,293,ls),
(156,293,o),
(185,250,o),
(185,170,cs),
(185,40,ls),
(185,-66,o),
(226,-110,o),
(322,-110,cs)
);
}
);
vertWidth = 1000;
width = 500;
}
);
unicode = 123;
},
{
color = 6;
glyphname = bracketleft;
kernLeft = I;
kernRight = bracketin;
lastChange = "2021-05-05 04:42:54 +0000";
layers = (
{
layerId = "E27A6A66-A1F8-4E1B-8224-7C0FE77551F2";
shapes = (
{
closed = 1;
nodes = (
(400,-110,l),
(400,-40,l),
(206,-40,l),
(206,700,l),
(400,700,l),
(400,770,l),
(130,770,l),
(130,-110,l)
);
}
);
vertWidth = 1000;
width = 500;
}
);
unicode = 91;
},
{
color = 10;
glyphname = quoteright;
kernLeft = quote;
kernRight = quote;
lastChange = "2021-05-05 04:42:54 +0000";
layers = (
{
layerId = "E27A6A66-A1F8-4E1B-8224-7C0FE77551F2";
shapes = (
{
closed = 1;
nodes = (
(229,470,l),
(351,770,l),
(251,770,l),
(149,470,l)
);
}
);
vertWidth = 1000;
width = 500;
}
);
unicode = 8217;
},
{
color = 10;
glyphname = guilsinglleft;
kernLeft = plus;
kernRight = x;
lastChange = "2021-05-05 04:42:54 +0000";
layers = (
{
layerId = "E27A6A66-A1F8-4E1B-8224-7C0FE77551F2";
shapes = (
{
closed = 1;
nodes = (
(354,0,l),
(196,260,l),
(354,520,l),
(276,520,l),
(120,260,l),
(276,0,l)
);
}
);
vertWidth = 1000;
width = 500;
}
);
unicode = 8249;
},
{
color = 6;
glyphname = quotesingle;
kernLeft = quote;
kernRight = quote;
lastChange = "2021-05-05 04:42:54 +0000";
layers = (
{
layerId = "E27A6A66-A1F8-4E1B-8224-7C0FE77551F2";
shapes = (
{
closed = 1;
nodes = (
(285,470,l),
(295,770,l),
(205,770,l),
(215,470,l)
);
}
);
vertWidth = 1000;
width = 500;
}
);
unicode = 39;
},
{
color = 11;
glyphname = florin;
kernLeft = f;
kernRight = f;
lastChange = "2024-12-27 12:47:49 +0000";
layers = (
{
layerId = "E27A6A66-A1F8-4E1B-8224-7C0FE77551F2";
shapes = (
{
closed = 1;
nodes = (
(239,-120,o),
(290,-63,o),
(290,54,cs),
(290,351,l),
(465,351,l),
(465,421,l),
(290,421,l),
(290,594,ls),
(290,669,o),
(316,700,o),
(378,700,cs),
(403,700,o),
(431,695,o),
(465,683,c),
(465,754,l),
(435,764,o),
(400,770,o),
(366,770,cs),
(261,770,o),
(210,713,o),
(210,596,cs),
(210,421,l),
(35,421,l),
(35,351,l),
(210,351,l),
(210,56,ls),
(210,-19,o),
(184,-50,o),
(122,-50,cs),
(97,-50,o),
(69,-45,o),
(35,-33,c),
(35,-104,l),
(65,-114,o),
(100,-120,o),
(134,-120,cs)
);
}
);
vertWidth = 1000;
width = 500;
}
);
unicode = 402;
},
{
color = 6;
glyphname = at;
kernLeft = o;
kernRight = o;
lastChange = "2021-05-05 04:42:54 +0000";
layers = (
{
layerId = "E27A6A66-A1F8-4E1B-8224-7C0FE77551F2";
shapes = (
{
closed = 1;
nodes = (
(324,-114,o),
(375,-104,o),
(418,-87,c),
(418,-10,l),
(375,-32,o),
(333,-42,o),
(288,-42,cs),
(159,-42,o),
(108,42,o),
(108,260,cs),
(108,472,o),
(158,562,o),
(273,562,cs),
(345,562,o),
(381,527,o),
(381,453,cs),
(381,442,l),
(377,442,l),
(355,463,o),
(331,472,o),
(300,472,cs),
(214,472,o),
(175,403,o),
(175,258,cs),
(175,111,o),
(215,44,o),
(306,44,cs),
(362,44,o),
(423,69,o),
(460,108,c),
(460,434,ls),
(460,569,o),
(401,634,o),
(278,634,cs),
(109,634,o),
(30,515,o),
(30,260,cs),
(30,5,o),
(108,-114,o),
(275,-114,cs)
);
},
{
closed = 1;
nodes = (
(271,114,o),
(254,153,o),
(254,258,cs),
(254,363,o),
(271,402,o),
(317,402,cs),
(344,402,o),
(370,389,o),
(380,369,c),
(380,139,l),
(365,124,o),
(340,114,o),
(317,114,cs)
);
}
);
vertWidth = 1000;
width = 500;
}
);
unicode = 64;
},
{
color = 6;
glyphname = ampersand;
kernLeft = ampersand;
kernRight = ampersand;
lastChange = "2021-05-05 04:42:54 +0000";
layers = (
{
layerId = "E27A6A66-A1F8-4E1B-8224-7C0FE77551F2";
shapes = (
{
closed = 1;
nodes = (
(332,-10,o),
(382,-2,o),
(451,16,c),
(451,413,l),
(373,413,l),
(373,39,l),
(397,84,l),
(353,69,o),
(315,62,o),
(266,62,cs),
(154,62,o),
(103,99,o),
(103,182,cs),
(103,245,o),
(132,284,o),
(259,378,cs),
(361,459,o),
(400,516,o),
(400,585,cs),
(400,679,o),
(330,740,o),
(222,740,cs),
(114,740,o),
(44,679,o),
(44,585,cs),
(44,517,o),
(80,449,o),
(150,377,cs),
(396,126,l),
(446,180,l),
(225,409,ls),
(146,491,o),
(124,532,o),
(124,577,cs),
(124,635,o),
(160,668,o),
(222,668,cs),
(284,668,o),
(320,635,o),
(320,577,cs),
(320,532,o),
(298,502,o),
(212,432,cs),
(62,319,o),
(21,264,o),
(21,177,cs),
(21,53,o),
(105,-10,o),
(272,-10,cs)
);
}
);
vertWidth = 1000;
width = 500;
}
);
unicode = 38;
},
{
color = 11;
glyphname = paragraph;
kernLeft = percent;
kernRight = H;
lastChange = "2021-05-05 04:42:54 +0000";
layers = (
{
layerId = "E27A6A66-A1F8-4E1B-8224-7C0FE77551F2";
shapes = (
{
closed = 1;
nodes = (
(221,-140,l),
(291,-140,l),
(291,660,l),
(346,660,l),
(346,-140,l),
(416,-140,l),
(416,730,l),
(221,730,ls),
(121,730,o),
(41,627,o),
(41,500,cs),
(41,373,o),
(121,270,o),
(221,270,c)
);
}
);
vertWidth = 1000;
width = 500;
}
);
unicode = 182;
},
{
color = 11;
glyphname = section;
kernLeft = S;
kernRight = S;
lastChange = "2021-05-05 04:42:54 +0000";
layers = (
{
layerId = "E27A6A66-A1F8-4E1B-8224-7C0FE77551F2";
shapes = (
{
closed = 1;
nodes = (
(278,120,l),
(372,136,o),
(432,202,o),
(432,295,cs),
(432,383,o),
(378,442,o),
(245,477,cs),
(172,496,o),
(142,530,o),
(142,580,cs),
(142,638,o),
(183,675,o),
(250,675,cs),
(303,675,o),
(356,664,o),
(415,638,c),
(415,706,l),
(361,729,o),
(306,740,o),
(250,740,cs),
(136,740,o),
(65,676,o),
(65,573,cs),
(65,491,o),
(111,440,o),
(245,408,cs),
(329,387,o),
(362,349,o),
(362,290,cs),
(362,231,o),
(323,184,o),
(275,175,c)
);
},
{
closed = 1;
nodes = (
(364,-150,o),
(435,-86,o),
(435,18,cs),
(435,99,o),
(389,150,o),
(255,183,cs),
(171,203,o),
(137,241,o),
(137,300,cs),
(137,359,o),
(177,406,o),
(225,415,c),
(222,470,l),
(128,454,o),
(67,388,o),
(67,295,cs),
(67,207,o),
(122,148,o),
(255,113,cs),
(328,94,o),
(357,60,o),
(357,10,cs),
(357,-48,o),
(317,-85,o),
(250,-85,cs),
(197,-85,o),
(144,-74,o),
(85,-48,c),
(85,-116,l),
(138,-139,o),
(194,-150,o),
(250,-150,cs)
);
}
);
vertWidth = 1000;
width = 500;
}
);
unicode = 167;
},
{
color = 11;
glyphname = copyright;
kernLeft = O;
kernRight = O;
lastChange = "2024-12-27 12:47:49 +0000";
layers = (
{
layerId = "E27A6A66-A1F8-4E1B-8224-7C0FE77551F2";
shapes = (
{
closed = 1;
nodes = (
(394,260,o),
(490,356,o),
(490,500,cs),
(490,644,o),
(394,740,o),
(250,740,cs),
(106,740,o),
(10,644,o),
(10,500,cs),
(10,356,o),
(106,260,o),
(250,260,cs)
);
},
{
closed = 1;
nodes = (
(288,352,o),
(311,354,o),
(327,358,c),
(327,419,l),
(311,415,o),
(289,412,o),
(272,412,cs),
(225,412,o),
(208,433,o),
(208,492,cs),
(208,512,ls),
(208,568,o),
(225,592,o),
(262,592,cs),
(270,592,o),
(279,590,o),
(289,584,c),
(257,633,l),
(257,534,l),
(327,534,l),
(327,642,l),
(310,648,o),
(286,652,o),
(264,652,cs),
(180,652,o),
(137,605,o),
(137,514,cs),
(137,490,ls),
(137,399,o),
(182,352,o),
(268,352,cs)
);
},
{
closed = 1;
nodes = (
(134,310,o),
(60,384,o),
(60,500,cs),
(60,616,o),
(134,690,o),
(250,690,cs),
(366,690,o),
(440,616,o),
(440,500,cs),
(440,384,o),
(366,310,o),
(250,310,cs)
);
}
);
vertWidth = 1000;
width = 500;
}
);
unicode = 169;
},
{
color = 11;
glyphname = registered;
kernLeft = O;
kernRight = O;
lastChange = "2021-05-05 04:42:54 +0000";
layers = (
{
layerId = "E27A6A66-A1F8-4E1B-8224-7C0FE77551F2";
shapes = (
{
closed = 1;
nodes = (
(394,260,o),
(490,356,o),
(490,500,cs),
(490,644,o),
(394,740,o),
(250,740,cs),
(106,740,o),
(10,644,o),
(10,500,cs),
(10,356,o),
(106,260,o),
(250,260,cs)
);
},
{
closed = 1;
nodes = (
(134,310,o),
(60,384,o),
(60,500,cs),
(60,616,o),
(134,690,o),
(250,690,cs),
(366,690,o),
(440,616,o),
(440,500,cs),
(440,384,o),
(366,310,o),
(250,310,cs)
);
},
{
closed = 1;
nodes = (
(163,356,l),
(233,356,l),
(233,631,l),
(195,588,l),
(211,591,o),
(222,592,o),
(236,592,cs),
(281,592,o),
(287,584,o),
(287,553,cs),
(287,523,o),
(281,515,o),
(236,515,cs),
(225,515,o),
(215,516,o),
(195,518,c),
(180,459,l),
(198,457,o),
(214,456,o),
(232,456,cs),
(323,456,o),
(358,483,o),
(358,554,cs),
(358,624,o),
(323,652,o),
(232,652,cs),
(212,652,o),
(192,651,o),
(163,647,c)
);
},
{
closed = 1;
nodes = (
(363,356,l),
(300,489,l),
(226,489,l),
(283,356,l)
);
}
);
vertWidth = 1000;
width = 500;
}
);
unicode = 174;
},
{
color = 11;
glyphname = trademark;
kernLeft = asterisk;
kernRight = asterisk;
lastChange = "2021-05-05 04:42:54 +0000";
layers = (
{
layerId = "E27A6A66-A1F8-4E1B-8224-7C0FE77551F2";
shapes = (
{
closed = 1;
nodes = (
(161,375,l),
(161,678,l),
(232,678,l),
(232,375,l),
(300,375,l),
(294,625,l),
(296,625,l),
(320,445,l),
(365,445,l),
(389,625,l),
(391,625,l),
(385,375,l),
(452,375,l),
(452,740,l),
(357,740,l),
(343,590,l),
(341,590,l),
(327,740,l),
(18,740,l),
(18,678,l),
(89,678,l),
(89,375,l)
);
}
);
vertWidth = 1000;
width = 500;
}
);
unicode = 8482;
},
{
color = 11;
glyphname = degree;
kernLeft = quote;
kernRight = quote;
lastChange = "2021-05-05 04:42:54 +0000";
layers = (
{
layerId = "E27A6A66-A1F8-4E1B-8224-7C0FE77551F2";
shapes = (
{
closed = 1;
nodes = (
(345,404,o),
(418,477,o),
(418,572,cs),
(418,667,o),
(345,740,o),
(250,740,cs),
(155,740,o),
(82,667,o),
(82,572,cs),
(82,477,o),
(155,404,o),
(250,404,cs)
);
},
{
closed = 1;
nodes = (
(188,464,o),
(142,510,o),
(142,572,cs),
(142,634,o),
(188,680,o),
(250,680,cs),
(312,680,o),
(358,634,o),
(358,572,cs),
(358,510,o),
(312,464,o),
(250,464,cs)
);
}
);
vertWidth = 1000;
width = 500;
}
);
unicode = 176;
},
{
color = 6;
glyphname = bar;
kernLeft = I;
kernRight = I;
lastChange = "2021-05-05 04:42:54 +0000";
layers = (
{
layerId = "E27A6A66-A1F8-4E1B-8224-7C0FE77551F2";
shapes = (
{
closed = 1;
nodes = (
(288,-210,l),
(288,810,l),
(212,810,l),
(212,-210,l)
);
}
);
vertWidth = 1000;
width = 500;
}
);
metricRight = "=|";
unicode = 124;
},
{
color = 11;
glyphname = brokenbar;
kernLeft = I;
kernRight = I;
lastChange = "2021-05-05 04:42:54 +0000";
layers = (
{
layerId = "E27A6A66-A1F8-4E1B-8224-7C0FE77551F2";
shapes = (
{
closed = 1;
nodes = (
(288,370,l),
(288,810,l),
(212,810,l),
(212,370,l)
);
},
{
closed = 1;
nodes = (
(288,-220,l),
(288,220,l),
(212,220,l),
(212,-220,l)
);
}
);
vertWidth = 1000;
width = 500;
}
);
metricLeft = bar;
metricRight = bar;
unicode = 166;
},
{
color = 11;
glyphname = dagger;
kernLeft = O;
kernRight = O;
lastChange = "2021-05-05 04:42:54 +0000";
layers = (
{
layerId = "E27A6A66-A1F8-4E1B-8224-7C0FE77551F2";
shapes = (
{
closed = 1;
nodes = (
(290,-110,l),
(290,452,l),
(475,452,l),
(475,524,l),
(290,524,l),
(290,730,l),
(210,730,l),
(210,524,l),
(25,524,l),
(25,452,l),
(210,452,l),
(210,-110,l)
);
}
);
vertWidth = 1000;
width = 500;
}
);
unicode = 8224;
},
{
color = 10;
glyphname = numero;
kernLeft = H;
kernRight = H;
lastChange = "2024-12-27 12:47:49 +0000";
layers = (
{
layerId = "E27A6A66-A1F8-4E1B-8224-7C0FE77551F2";
shapes = (
{
closed = 1;
nodes = (
(135,336,l),
(135,620,l),
(139,620,l),
(344,336,l),
(445,336,l),
(445,730,l),
(365,730,l),
(365,446,l),
(361,446,l),
(156,730,l),
(55,730,l),
(55,336,l)
);
},
{
closed = 1;
nodes = (
(417,90,o),
(460,126,o),
(460,190,cs),
(460,206,ls),
(460,270,o),
(417,306,o),
(340,306,cs),
(263,306,o),
(220,270,o),
(220,206,cs),
(220,190,ls),
(220,126,o),
(263,90,o),
(340,90,cs)
);
},
{
closed = 1;
nodes = (
(304,144,o),
(288,159,o),
(288,192,cs),
(288,204,ls),
(288,237,o),
(304,252,o),
(340,252,cs),
(376,252,o),
(392,237,o),
(392,204,cs),
(392,192,ls),
(392,159,o),
(376,144,o),
(340,144,cs)
);
},
{
closed = 1;
nodes = (
(445,0,l),
(445,54,l),
(235,54,l),
(235,0,l)
);
}
);
vertWidth = 1000;
width = 500;
}
);
unicode = 8470;
},
{
color = 11;
glyphname = cedi;
kernLeft = O;
kernRight = C;
lastChange = "2021-05-07 20:48:42 +0000";
layers = (
{
layerId = "E27A6A66-A1F8-4E1B-8224-7C0FE77551F2";
shapes = (
{
closed = 1;
nodes = (
(285,365,l),
(285,835,l),
(215,835,l),
(215,365,l)
);
},
{
closed = 1;
nodes = (
(285,-105,l),
(285,365,l),
(215,365,l),
(215,-105,l)
);
},
{
ref = C;
}
);
width = 500;
}
);
unicode = 8373;
},
{
color = 11;
glyphname = cent;
kernLeft = o;
kernRight = c;
lastChange = "2021-05-07 20:48:49 +0000";
layers = (
{
layerId = "E27A6A66-A1F8-4E1B-8224-7C0FE77551F2";
shapes = (
{
closed = 1;
nodes = (
(295,260,l),
(295,625,l),
(225,625,l),
(225,260,l)
);
},
{
closed = 1;
nodes = (
(295,-105,l),
(295,260,l),
(225,260,l),
(225,-105,l)
);
},
{
ref = c;
}
);
width = 500;
}
);
unicode = 162;
},
{
color = 11;
glyphname = colonsign;
kernLeft = O;
kernRight = C;
lastChange = "2021-05-05 04:42:54 +0000";
layers = (
{
layerId = "E27A6A66-A1F8-4E1B-8224-7C0FE77551F2";
name = "Regular [234]";
shapes = (
{
closed = 1;
nodes = (
(185,-105,l),
(202,58,l),
(132,58,l),
(115,-105,l)
);
},
{
closed = 1;
nodes = (
(269,701,l),
(283,835,l),
(213,835,l),
(199,701,l)
);
},
{
closed = 1;
nodes = (
(295,-105,l),
(312,58,l),
(242,58,l),
(225,-105,l)
);
},
{
closed = 1;
nodes = (
(379,701,l),
(393,835,l),
(323,835,l),
(309,701,l)
);
},
{
alignment = -1;
ref = C;
}
);
width = 500;
}
);
unicode = 8353;
},
{
color = 11;
glyphname = currency;
lastChange = "2021-05-05 04:42:54 +0000";
layers = (
{
layerId = "E27A6A66-A1F8-4E1B-8224-7C0FE77551F2";
shapes = (
{
closed = 1;
nodes = (
(349,80,o),
(430,161,o),
(430,260,c),
(430,359,o),
(349,440,o),
(250,440,c),
(150,440,o),
(70,359,o),
(70,260,c),
(70,161,o),
(150,80,o),
(250,80,cs)
);
},
{
closed = 1;
nodes = (
(167,135,l),
(124,177,l),
(34,87,l),
(77,44,l)
);
},
{
closed = 1;
nodes = (
(466,87,l),
(375,177,l),
(333,135,l),
(423,44,l)
);
},
{
closed = 1;
nodes = (
(167,386,l),
(77,476,l),
(34,433,l),
(124,343,l)
);
},
{
closed = 1;
nodes = (
(186,145,o),
(135,197,o),
(135,260,c),
(135,324,o),
(186,375,o),
(250,375,c),
(313,375,o),
(365,324,o),
(365,260,c),
(365,197,o),
(313,145,o),
(250,145,cs)
);
},
{
closed = 1;
nodes = (
(466,433,l),
(423,476,l),
(333,386,l),
(375,343,l)
);
}
);
vertWidth = 1000;
width = 500;
}
);
unicode = 164;
},
{
color = 6;
glyphname = dollar;
kernLeft = S;
kernRight = S;
lastChange = "2021-05-05 04:42:54 +0000";
layers = (
{
layerId = "E27A6A66-A1F8-4E1B-8224-7C0FE77551F2";
shapes = (
{
closed = 1;
nodes = (
(285,-105,l),
(285,375,l),
(215,375,l),
(215,-105,l)
);
},
{
closed = 1;
nodes = (
(285,375,l),
(285,835,l),
(215,835,l),
(215,375,l)
);
},
{
ref = S;
}
);
vertWidth = 1000;
width = 500;
}
);
unicode = 36;
},
{
color = 11;
glyphname = dong;
kernLeft = n;
kernRight = Z;
lastChange = "2021-05-05 04:42:54 +0000";
layers = (
{
layerId = "E27A6A66-A1F8-4E1B-8224-7C0FE77551F2";
shapes = (
{
closed = 1;
nodes = (
(450,-124,l),
(450,-58,l),
(50,-58,l),
(50,-124,l)
);
},
{
ref = dcroat;
}
);
vertWidth = 1000;
width = 500;
}
);
unicode = 8363;
},
{
color = 11;
glyphname = euro;
kernLeft = "-";
kernRight = C;
lastChange = "2021-05-05 04:42:54 +0000";
layers = (
{
layerId = "E27A6A66-A1F8-4E1B-8224-7C0FE77551F2";
shapes = (
{
closed = 1;
nodes = (
(363,-10,o),
(408,-5,o),
(441,5,c),
(441,80,l),
(409,69,o),
(368,62,o),
(332,62,cs),
(204,62,o),
(143,149,o),
(143,340,cs),
(143,390,ls),
(143,581,o),
(204,668,o),
(332,668,cs),
(368,668,o),
(409,661,o),
(441,650,c),
(441,725,l),
(408,735,o),
(363,740,o),
(324,740,cs),
(150,740,o),
(61,623,o),
(61,395,cs),
(61,335,ls),
(61,107,o),
(150,-10,o),
(324,-10,cs)
);
},
{
closed = 1;
nodes = (
(385,417,l),
(385,483,l),
(5,483,l),
(5,417,l)
);
},
{
closed = 1;
nodes = (
(385,247,l),
(385,313,l),
(5,313,l),
(5,247,l)
);
}
);
vertWidth = 1000;
width = 500;
}
);
unicode = 8364;
},
{
color = 11;
glyphname = franc;
kernLeft = A;
kernRight = F;
lastChange = "2021-05-05 04:42:54 +0000";
layers = (
{
layerId = "E27A6A66-A1F8-4E1B-8224-7C0FE77551F2";
shapes = (
{
closed = 1;
nodes = (
(174,0,l),
(174,361,l),
(442,361,l),
(442,431,l),
(174,431,l),
(174,660,l),
(452,660,l),
(452,730,l),
(92,730,l),
(92,0,l)
);
},
{
closed = 1;
nodes = (
(360,160,l),
(360,230,l),
(10,230,l),
(10,160,l)
);
}
);
width = 500;
}
);
unicode = 8355;
},
{
color = 11;
glyphname = guarani;
kernLeft = O;
kernRight = G;
lastChange = "2021-05-05 04:42:54 +0000";
layers = (
{
layerId = "E27A6A66-A1F8-4E1B-8224-7C0FE77551F2";
shapes = (
{
closed = 1;
nodes = (
(346,-10,o),
(404,-3,o),
(447,10,c),
(447,420,l),
(217,420,l),
(217,352,l),
(367,352,l),
(367,44,l),
(398,82,l),
(364,68,o),
(328,62,o),
(297,62,cs),
(178,62,o),
(119,154,o),
(119,340,cs),
(119,390,ls),
(119,584,o),
(178,668,o),
(314,668,cs),
(350,668,o),
(390,662,o),
(428,653,c),
(428,727,l),
(391,735,o),
(348,740,o),
(309,740,cs),
(126,740,o),
(37,627,o),
(37,395,cs),
(37,335,ls),
(37,103,o),
(124,-10,o),
(302,-10,cs)
);
},
{
closed = 1;
nodes = (
(285,-105,l),
(285,375,l),
(215,375,l),
(215,-105,l)
);
},
{
closed = 1;
nodes = (
(285,375,l),
(285,835,l),
(215,835,l),
(215,375,l)
);
}
);
width = 500;
}
);
unicode = 8370;
},
{
color = 11;
glyphname = kip;
kernLeft = O;
kernRight = "-";
lastChange = "2021-05-05 04:42:54 +0000";
layers = (
{
layerId = "E27A6A66-A1F8-4E1B-8224-7C0FE77551F2";
shapes = (
{
closed = 1;
nodes = (
(465,351,l),
(465,421,l),
(5,421,l),
(5,351,l)
);
},
{
alignment = -1;
ref = K;
}
);
vertWidth = 1000;
width = 500;
}
);
unicode = 8365;
},
{
color = 11;
glyphname = lira;
kernLeft = equal;
kernRight = E;
lastChange = "2021-05-05 04:42:54 +0000";
layers = (
{
layerId = "E27A6A66-A1F8-4E1B-8224-7C0FE77551F2";
shapes = (
{
closed = 1;
nodes = (
(60,0,l),
(440,0,l),
(440,70,l),
(178,70,l),
(178,74,l),
(208,100,o),
(226,158,o),
(226,230,cs),
(226,564,ls),
(226,639,o),
(255,670,o),
(323,670,cs),
(350,670,o),
(381,665,o),
(417,652,c),
(417,724,l),
(382,734,o),
(346,740,o),
(310,740,cs),
(199,740,o),
(145,683,o),
(145,566,cs),
(145,230,ls),
(145,137,o),
(112,75,o),
(60,70,c)
);
},
{
closed = 1;
nodes = (
(390,250,l),
(390,318,l),
(60,318,l),
(60,250,l)
);
},
{
closed = 1;
nodes = (
(390,412,l),
(390,480,l),
(60,480,l),
(60,412,l)
);
}
);
vertWidth = 1000;
width = 500;
}
);
unicode = 8356;
},
{
color = 11;
glyphname = liraTurkish;
kernLeft = O;
kernRight = o;
lastChange = "2024-12-27 12:47:49 +0000";
layers = (
{
layerId = "E27A6A66-A1F8-4E1B-8224-7C0FE77551F2";
shapes = (
{
closed = 1;
nodes = (
(403,-10,o),
(482,86,o),
(482,320,c),
(401,320,l),
(401,139,o),
(348,62,o),
(224,62,cs),
(196,62,o),
(174,66,o),
(147,74,c),
(164,47,l),
(164,730,l),
(82,730,l),
(82,2,l),
(130,-6,o),
(171,-10,o),
(210,-10,cs)
);
},
{
closed = 1;
nodes = (
(427,429,l),
(427,499,l),
(7,419,l),
(7,349,l)
);
},
{
closed = 1;
nodes = (
(427,592,l),
(427,662,l),
(7,582,l),
(7,512,l)
);
}
);
vertWidth = 1000;
width = 500;
}
);
unicode = 8378;
},
{
color = 11;
glyphname = manat;
kernLeft = manat;
kernRight = manat;
lastChange = "2021-05-05 04:42:54 +0000";
layers = (
{
layerId = "E27A6A66-A1F8-4E1B-8224-7C0FE77551F2";
shapes = (
{
closed = 1;
nodes = (
(35,0,l),
(115,0,l),
(115,291,ls),
(115,422,o),
(145,459,o),
(250,459,cs),
(355,459,o),
(385,422,o),
(385,291,cs),
(385,0,l),
(465,0,l),
(465,296,ls),
(465,469,o),
(408,531,o),
(250,531,cs),
(92,531,o),
(35,469,o),
(35,296,cs)
);
},
{
closed = 1;
nodes = (
(285,0,l),
(285,730,l),
(215,730,l),
(215,0,l)
);
}
);
vertWidth = 1000;
width = 500;
}
);
unicode = 8380;
},
{
color = 11;
glyphname = naira;
kernLeft = O;
kernRight = O;
lastChange = "2021-05-05 14:46:10 +0000";
layers = (
{
layerId = "E27A6A66-A1F8-4E1B-8224-7C0FE77551F2";
name = "Regular [234]";
shapes = (
{
closed = 1;
nodes = (
(405,412,l),
(405,412,l),
(495,412,l),
(495,480,l),
(220,480,l),
(220,412,l)
);
},
{
closed = 1;
nodes = (
(280,250,l),
(280,318,l),
(95,318,l),
(95,318,l),
(5,318,l),
(5,250,l)
);
},
{
closed = 1;
nodes = (
(95,412,l),
(95,480,l),
(5,480,l),
(5,412,l)
);
},
{
closed = 1;
nodes = (
(495,250,l),
(495,318,l),
(405,318,l),
(405,250,l)
);
},
{
alignment = -1;
ref = N;
}
);
width = 500;
}
);
unicode = 8358;
},
{
color = 11;
glyphname = peseta;
kernLeft = O;
kernRight = P;
lastChange = "2021-05-05 04:42:54 +0000";
layers = (
{
layerId = "E27A6A66-A1F8-4E1B-8224-7C0FE77551F2";
shapes = (
{
closed = 1;
nodes = (
(135,460,l),
(135,460,l),
(365,460,l),
(365,460,l),
(495,460,l),
(495,530,l),
(365,530,l),
(365,530,l),
(135,530,l),
(135,530,l),
(5,530,l),
(5,460,l)
);
},
{
alignment = -1;
pos = (-16,0);
ref = P;
}
);
width = 500;
}
);
unicode = 8359;
},
{
color = 11;
glyphname = peso;
kernLeft = O;
kernRight = P;
lastChange = "2021-05-05 04:42:54 +0000";
layers = (
{
layerId = "E27A6A66-A1F8-4E1B-8224-7C0FE77551F2";
name = "Regular [367]";
shapes = (
{
closed = 1;
nodes = (
(495,543,l),
(495,611,l),
(385,611,l),
(385,543,l)
);
},
{
closed = 1;
nodes = (
(115,381,l),
(115,449,l),
(5,449,l),
(5,381,l)
);
},
{
closed = 1;
nodes = (
(115,543,l),
(115,611,l),
(5,611,l),
(5,543,l)
);
},
{
closed = 1;
nodes = (
(495,381,l),
(495,449,l),
(385,449,l),
(385,381,l)
);
},
{
alignment = -1;
pos = (-16,0);
ref = P;
}
);
vertWidth = 1000;
width = 500;
}
);
unicode = 8369;
},
{
color = 11;
glyphname = ruble;
kernLeft = n;
kernRight = P;
lastChange = "2021-05-05 04:42:54 +0000";
layers = (
{
layerId = "E27A6A66-A1F8-4E1B-8224-7C0FE77551F2";
shapes = (
{
closed = 1;
nodes = (
(85,0,l),
(167,0,l),
(167,687,l),
(141,660,l),
(172,665,o),
(200,668,o),
(231,668,cs),
(350,668,o),
(394,624,o),
(394,503,cs),
(394,382,o),
(351,338,o),
(231,338,cs),
(10,338,l),
(10,270,l),
(223,270,ls),
(406,270,o),
(475,335,o),
(475,505,cs),
(475,675,o),
(405,740,o),
(223,740,cs),
(184,740,o),
(143,737,o),
(85,728,c)
);
},
{
closed = 1;
nodes = (
(380,122,l),
(380,190,l),
(10,190,l),
(10,122,l)
);
}
);
vertWidth = 1000;
width = 500;
}
);
unicode = 8381;
},
{
color = 11;
glyphname = rupeeIndian;
kernRight = R;
lastChange = "2024-12-27 12:47:49 +0000";
layers = (
{
layerId = "E27A6A66-A1F8-4E1B-8224-7C0FE77551F2";
shapes = (
{
closed = 1;
nodes = (
(144,290,ls),
(323,290,o),
(396,353,o),
(396,510,cs),
(396,597,o),
(374,646,o),
(321,675,c),
(315,660,l),
(471,660,l),
(471,730,l),
(41,730,l),
(41,658,l),
(151,658,ls),
(271,658,o),
(315,618,o),
(315,508,cs),
(315,399,o),
(272,360,o),
(151,360,cs),
(41,360,l),
(41,290,l)
);
},
{
closed = 1;
nodes = (
(406,0,l),
(154,328,l),
(62,328,l),
(312,0,l)
);
},
{
closed = 1;
nodes = (
(471,474,l),
(471,544,l),
(41,544,l),
(41,474,l)
);
}
);
vertWidth = 1000;
width = 500;
}
);
unicode = 8377;
},
{
color = 11;
glyphname = sterling;
kernLeft = equal;
kernRight = E;
lastChange = "2021-05-05 04:42:54 +0000";
layers = (
{
layerId = "E27A6A66-A1F8-4E1B-8224-7C0FE77551F2";
shapes = (
{
closed = 1;
nodes = (
(60,0,l),
(440,0,l),
(440,70,l),
(178,70,l),
(178,74,l),
(208,100,o),
(226,158,o),
(226,230,cs),
(226,564,ls),
(226,639,o),
(255,670,o),
(323,670,cs),
(350,670,o),
(381,665,o),
(417,652,c),
(417,724,l),
(382,734,o),
(346,740,o),
(310,740,cs),
(199,740,o),
(145,683,o),
(145,566,cs),
(145,230,ls),
(145,137,o),
(112,75,o),
(60,70,c)
);
},
{
closed = 1;
nodes = (
(390,351,l),
(390,421,l),
(60,421,l),
(60,351,l)
);
}
);
vertWidth = 1000;
width = 500;
}
);
unicode = 163;
},
{
color = 11;
glyphname = won;
kernLeft = H;
kernRight = H;
lastChange = "2021-05-05 04:42:54 +0000";
layers = (
{
layerId = "E27A6A66-A1F8-4E1B-8224-7C0FE77551F2";
name = "Regular [234]";
shapes = (
{
closed = 1;
nodes = (
(495,250,l),
(495,318,l),
(410,318,l),
(410,250,l)
);
},
{
closed = 1;
nodes = (
(415,412,l),
(415,412,l),
(495,412,l),
(495,480,l),
(275,480,l),
(275,412,l)
);
},
{
closed = 1;
nodes = (
(90,318,l),
(5,318,l),
(5,250,l),
(90,250,l)
);
},
{
closed = 1;
nodes = (
(225,480,l),
(5,480,l),
(5,412,l),
(85,412,l),
(85,412,l),
(225,412,l)
);
},
{
alignment = -1;
ref = W;
}
);
width = 500;
}
);
unicode = 8361;
},
{
color = 11;
glyphname = yen;
kernLeft = W;
kernRight = W;
lastChange = "2021-05-05 04:42:54 +0000";
layers = (
{
layerId = "E27A6A66-A1F8-4E1B-8224-7C0FE77551F2";
shapes = (
{
closed = 1;
nodes = (
(459,122,l),
(459,190,l),
(39,190,l),
(39,122,l)
);
},
{
closed = 1;
nodes = (
(459,270,l),
(459,338,l),
(39,338,l),
(39,270,l)
);
},
{
alignment = -1;
ref = Y;
}
);
width = 500;
}
);
unicode = 165;
},
{
color = 9;
export = 0;
glyphname = guarani.001;
kernLeft = O;
kernRight = G;
lastChange = "2021-05-05 04:42:54 +0000";
layers = (
{
layerId = "E27A6A66-A1F8-4E1B-8224-7C0FE77551F2";
shapes = (
{
closed = 1;
nodes = (
(285,-105,l),
(285,54,l),
(285,54,l),
(285,386,l),
(285,386,l),
(285,835,l),
(215,835,l),
(215,676,l),
(215,676,l),
(215,54,l),
(215,54,l),
(215,-105,l)
);
},
{
closed = 1;
nodes = (
(346,-10,o),
(404,-3,o),
(447,10,c),
(447,420,l),
(217,420,l),
(217,352,l),
(367,352,l),
(367,44,l),
(398,82,l),
(364,68,o),
(328,62,o),
(297,62,cs),
(178,62,o),
(119,154,o),
(119,340,cs),
(119,390,ls),
(119,584,o),
(178,668,o),
(314,668,cs),
(350,668,o),
(390,662,o),
(428,653,c),
(428,727,l),
(391,735,o),
(348,740,o),
(309,740,cs),
(126,740,o),
(37,627,o),
(37,395,cs),
(37,335,ls),
(37,103,o),
(124,-10,o),
(302,-10,cs)
);
}
);
width = 500;
}
);
},
{
color = 6;
glyphname = plus;
kernLeft = "-";
kernRight = "-";
lastChange = "2021-05-05 04:42:54 +0000";
layers = (
{
layerId = "E27A6A66-A1F8-4E1B-8224-7C0FE77551F2";
shapes = (
{
closed = 1;
nodes = (
(290,0,l),
(290,254,l),
(475,254,l),
(475,326,l),
(290,326,l),
(290,580,l),
(210,580,l),
(210,326,l),
(25,326,l),
(25,254,l),
(210,254,l),
(210,0,l)
);
}
);
vertWidth = 1000;
width = 500;
}
);
metricRight = "=|";
unicode = 43;
},
{
color = 10;
glyphname = minus;
kernLeft = "-";
kernRight = "-";
lastChange = "2021-05-05 04:42:54 +0000";
layers = (
{
layerId = "E27A6A66-A1F8-4E1B-8224-7C0FE77551F2";
shapes = (
{
closed = 1;
nodes = (
(475,253,l),
(475,327,l),
(25,327,l),
(25,253,l)
);
}
);
vertWidth = 1000;
width = 500;
}
);
unicode = 8722;
},
{
color = 10;
glyphname = multiply;
kernLeft = x;
kernRight = x;
lastChange = "2021-05-05 04:42:54 +0000";
layers = (
{
layerId = "E27A6A66-A1F8-4E1B-8224-7C0FE77551F2";
shapes = (
{
closed = 1;
nodes = (
(49,57,l),
(392,565,l),
(451,523,l),
(108,15,l)
);
},
{
closed = 1;
nodes = (
(49,523,l),
(108,565,l),
(451,57,l),
(392,15,l)
);
}
);
vertWidth = 1000;
width = 500;
}
);
unicode = 215;
},
{
color = 6;
glyphname = equal;
kernLeft = equal;
kernRight = equal;
lastChange = "2021-05-05 04:42:54 +0000";
layers = (
{
layerId = "E27A6A66-A1F8-4E1B-8224-7C0FE77551F2";
shapes = (
{
closed = 1;
nodes = (
(440,368,l),
(440,440,l),
(60,440,l),
(60,368,l)
);
},
{
closed = 1;
nodes = (
(440,140,l),
(440,212,l),
(60,212,l),
(60,140,l)
);
}
);
vertWidth = 1000;
width = 500;
}
);
metricRight = "=|";
unicode = 61;
},
{
color = 10;
glyphname = notequal;
kernLeft = equal;
kernRight = equal;
lastChange = "2021-05-05 04:42:54 +0000";
layers = (
{
layerId = "E27A6A66-A1F8-4E1B-8224-7C0FE77551F2";
shapes = (
{
closed = 1;
nodes = (
(360,548,l),
(289,565,l),
(140,32,l),
(211,15,l)
);
},
{
alignment = -1;
ref = equal;
}
);
vertWidth = 1000;
width = 500;
}
);
unicode = 8800;
},
{
color = 6;
glyphname = less;
kernLeft = "-";
kernRight = z;
lastChange = "2021-05-05 04:42:54 +0000";
layers = (
{
layerId = "E27A6A66-A1F8-4E1B-8224-7C0FE77551F2";
shapes = (
{
closed = 1;
nodes = (
(428,96,l),
(110,287,l),
(110,293,l),
(428,484,l),
(428,564,l),
(48,336,l),
(48,244,l),
(428,16,l)
);
}
);
vertWidth = 1000;
width = 500;
}
);
unicode = 60;
},
{
color = 10;
glyphname = greaterequal;
kernLeft = b;
kernRight = z;
lastChange = "2024-12-27 12:47:49 +0000";
layers = (
{
layerId = "E27A6A66-A1F8-4E1B-8224-7C0FE77551F2";
shapes = (
{
closed = 1;
nodes = (
(475,0,l),
(475,70,l),
(25,70,l),
(25,0,l)
);
},
{
alignment = -1;
pos = (-18,162);
ref = greater;
}
);
vertWidth = 1000;
width = 500;
}
);
unicode = 8805;
},
{
color = 10;
glyphname = plusminus;
kernLeft = z;
kernRight = z;
lastChange = "2024-12-27 12:47:49 +0000";
layers = (
{
layerId = "E27A6A66-A1F8-4E1B-8224-7C0FE77551F2";
shapes = (
{
closed = 1;
nodes = (
(290,172,l),
(290,415,l),
(475,415,l),
(475,487,l),
(290,487,l),
(290,730,l),
(210,730,l),
(210,487,l),
(25,487,l),
(25,415,l),
(210,415,l),
(210,172,l)
);
},
{
closed = 1;
nodes = (
(475,0,l),
(475,72,l),
(25,72,l),
(25,0,l)
);
}
);
vertWidth = 1000;
width = 500;
}
);
unicode = 177;
},
{
color = 10;
glyphname = logicalnot;
kernLeft = "-";
kernRight = equal;
lastChange = "2021-05-05 04:42:54 +0000";
layers = (
{
layerId = "E27A6A66-A1F8-4E1B-8224-7C0FE77551F2";
shapes = (
{
closed = 1;
nodes = (
(475,140,l),
(475,440,l),
(25,440,l),
(25,368,l),
(395,368,l),
(395,140,l)
);
}
);
vertWidth = 1000;
width = 500;
}
);
unicode = 172;
},
{
color = 6;
glyphname = asciitilde;
kernLeft = "-";
kernRight = "-";
lastChange = "2021-05-05 04:42:54 +0000";
layers = (
{
layerId = "E27A6A66-A1F8-4E1B-8224-7C0FE77551F2";
shapes = (
{
closed = 1;
nodes = (
(440,210,o),
(480,263,o),
(480,360,c),
(405,360,l),
(405,303,o),
(389,280,o),
(358,280,cs),
(331,280,o),
(304,296,o),
(269,318,cs),
(221,349,o),
(178,370,o),
(133,370,cs),
(60,370,o),
(20,317,o),
(20,220,c),
(95,220,l),
(95,277,o),
(111,300,o),
(142,300,cs),
(169,300,o),
(196,284,o),
(231,262,cs),
(279,231,o),
(322,210,o),
(367,210,cs)
);
}
);
vertWidth = 1000;
width = 500;
}
);
metricRight = "=|";
unicode = 126;
},
{
color = 6;
glyphname = asciicircum;
kernLeft = asciicircum;
kernRight = asciicircum;
lastChange = "2021-05-05 04:42:54 +0000";
layers = (
{
layerId = "E27A6A66-A1F8-4E1B-8224-7C0FE77551F2";
shapes = (
{
closed = 1;
nodes = (
(110,280,l),
(248,651,l),
(252,651,l),
(390,280,l),
(475,280,l),
(298,730,l),
(202,730,l),
(25,280,l)
);
}
);
vertWidth = 1000;
width = 500;
}
);
metricRight = "=|";
unicode = 94;
},
{
color = 11;
glyphname = micro;
kernLeft = n;
kernRight = u;
lastChange = "2021-05-05 14:43:38 +0000";
layers = (
{
layerId = "E27A6A66-A1F8-4E1B-8224-7C0FE77551F2";
shapes = (
{
closed = 1;
nodes = (
(144,-220,l),
(144,105,l),
(65,185,l),
(65,-220,l)
);
},
{
ref = u;
}
);
vertWidth = 1000;
width = 500;
}
);
unicode = 181;
},
{
color = 4;
glyphname = dotaccentcomb;
kernLeft = diacritical_top;
kernRight = diacritical_top;
lastChange = "2021-05-05 04:42:54 +0000";
layers = (
{
anchors = (
{
name = _top;
pos = (250,730);
},
{
name = top;
pos = (250,918);
}
);
layerId = "E27A6A66-A1F8-4E1B-8224-7C0FE77551F2";
shapes = (
{
closed = 1;
nodes = (
(293,792,o),
(321,818,o),
(321,860,cs),
(321,902,o),
(293,928,o),
(250,928,cs),
(207,928,o),
(179,902,o),
(179,860,cs),
(179,818,o),
(207,792,o),
(250,792,cs)
);
}
);
vertWidth = 1000;
width = 500;
}
);
unicode = 775;
},
{
color = 4;
glyphname = gravecomb;
kernLeft = quote;
kernRight = quote;
lastChange = "2021-05-05 04:42:54 +0000";
layers = (
{
anchors = (
{
name = _slide_L;
pos = (250,888);
},
{
name = _top;
pos = (250,730);
},
{
name = top;
pos = (250,1000);
}
);
layerId = "E27A6A66-A1F8-4E1B-8224-7C0FE77551F2";
shapes = (
{
closed = 1;
nodes = (
(287,780,l),
(185,1000,l),
(85,1000,l),
(207,780,l)
);
}
);
vertWidth = 1000;
width = 500;
}
);
unicode = 768;
},
{
color = 4;
glyphname = acutecomb;
kernLeft = diacritical_top;
kernRight = diacritical_top;
lastChange = "2021-05-05 04:42:54 +0000";
layers = (
{
anchors = (
{
name = _slide_L;
pos = (250,888);
},
{
name = _top;
pos = (250,730);
},
{
name = top;
pos = (250,1000);
}
);
layerId = "E27A6A66-A1F8-4E1B-8224-7C0FE77551F2";
shapes = (
{
closed = 1;
nodes = (
(415,1000,l),
(315,1000,l),
(213,780,l),
(293,780,l)
);
}
);
vertWidth = 1000;
width = 500;
}
);
metricLeft = "=|gravecomb";
metricRight = "=|gravecomb";
unicode = 769;
},
{
color = 4;
glyphname = circumflexcomb;
kernLeft = diacritical_top;
kernRight = diacritical_top;
lastChange = "2021-05-05 04:42:54 +0000";
layers = (
{
anchors = (
{
name = _top;
pos = (250,730);
},
{
name = top;
pos = (250,1000);
},
{
name = top_acR;
pos = (410,892);
},
{
name = top_grL;
pos = (440,892);
},
{
name = top_hkR;
pos = (390,910);
},
{
name = top_td;
pos = (250,980);
}
);
layerId = "E27A6A66-A1F8-4E1B-8224-7C0FE77551F2";
shapes = (
{
closed = 1;
nodes = (
(146,780,l),
(248,957,l),
(252,957,l),
(354,780,l),
(450,780,l),
(317,1000,l),
(183,1000,l),
(50,780,l)
);
}
);
vertWidth = 1000;
width = 500;
}
);
unicode = 770;
},
{
color = 4;
glyphname = brevecomb;
kernLeft = diacritical_top;
kernRight = diacritical_top;
lastChange = "2021-05-05 04:42:54 +0000";
layers = (
{
anchors = (
{
name = _top;
pos = (250,730);
},
{
name = top;
pos = (250,964);
},
{
name = top_ac;
pos = (240,910);
},
{
name = top_gr;
pos = (260,910);
},
{
name = top_hk;
pos = (250,940);
},
{
name = top_td;
pos = (250,950);
}
);
layerId = "E27A6A66-A1F8-4E1B-8224-7C0FE77551F2";
shapes = (
{
closed = 1;
nodes = (
(362,784,o),
(441,855,o),
(450,964,c),
(366,964,l),
(355,894,o),
(312,852,o),
(250,852,cs),
(188,852,o),
(144,894,o),
(134,964,c),
(50,964,l),
(59,855,o),
(138,784,o),
(250,784,cs)
);
}
);
vertWidth = 1000;
width = 500;
}
);
unicode = 774;
},
{
color = 4;
glyphname = ringcomb;
kernLeft = diacritical_top;
kernRight = diacritical_top;
lastChange = "2021-05-05 04:42:54 +0000";
layers = (
{
anchors = (
{
name = _top;
pos = (250,730);
},
{
name = top;
pos = (250,952);
},
{
name = top_acC;
pos = (250,980);
}
);
layerId = "E27A6A66-A1F8-4E1B-8224-7C0FE77551F2";
shapes = (
{
closed = 1;
nodes = (
(329,784,o),
(392,847,o),
(392,926,cs),
(392,1005,o),
(329,1068,o),
(250,1068,cs),
(171,1068,o),
(108,1005,o),
(108,926,cs),
(108,847,o),
(171,784,o),
(250,784,cs)
);
},
{
closed = 1;
nodes = (
(204,844,o),
(168,880,o),
(168,926,cs),
(168,972,o),
(204,1008,o),
(250,1008,cs),
(296,1008,o),
(332,972,o),
(332,926,cs),
(332,880,o),
(296,844,o),
(250,844,cs)
);
}
);
vertWidth = 1000;
width = 500;
}
);
unicode = 778;
},
{
color = 4;
glyphname = tildecomb;
kernLeft = diacritical_top;
kernRight = diacritical_top;
lastChange = "2021-05-05 04:42:54 +0000";
layers = (
{
anchors = (
{
name = _slide_L;
pos = (230,850);
},
{
name = _top;
pos = (250,730);
},
{
name = top;
pos = (250,953);
}
);
layerId = "E27A6A66-A1F8-4E1B-8224-7C0FE77551F2";
shapes = (
{
closed = 1;
nodes = (
(401,783,o),
(440,846,o),
(440,953,c),
(362,953,l),
(362,892,o),
(351,859,o),
(331,859,cs),
(320,859,o),
(308,868,o),
(283,894,cs),
(234,944,o),
(203,963,o),
(166,963,cs),
(99,963,o),
(60,900,o),
(60,793,c),
(138,793,l),
(138,854,o),
(149,887,o),
(169,887,cs),
(180,887,o),
(192,878,o),
(217,852,cs),
(266,802,o),
(297,783,o),
(334,783,cs)
);
}
);
vertWidth = 1000;
width = 500;
}
);
unicode = 771;
},
{
color = 4;
glyphname = macroncomb;
kernLeft = diacritical_top;
kernRight = diacritical_top;
lastChange = "2021-05-05 04:42:54 +0000";
layers = (
{
anchors = (
{
name = _top;
pos = (250,730);
},
{
name = top;
pos = (250,872);
}
);
layerId = "E27A6A66-A1F8-4E1B-8224-7C0FE77551F2";
shapes = (
{
closed = 1;
nodes = (
(425,798,l),
(425,862,l),
(75,862,l),
(75,798,l)
);
}
);
vertWidth = 1000;
width = 500;
}
);
unicode = 772;
},
{
color = 4;
glyphname = hookabovecomb;
kernLeft = diacritical_top;
kernRight = diacritical_top;
lastChange = "2021-05-05 04:42:54 +0000";
layers = (
{
anchors = (
{
name = _slide_L;
pos = (205,850);
},
{
name = _top;
pos = (255,730);
},
{
name = top;
pos = (255,970);
}
);
layerId = "E27A6A66-A1F8-4E1B-8224-7C0FE77551F2";
shapes = (
{
closed = 1;
nodes = (
(288,774,l),
(347,814,o),
(373,846,o),
(373,879,cs),
(373,942,o),
(330,970,o),
(236,970,cs),
(197,970,o),
(160,963,o),
(117,952,c),
(122,886,l),
(162,897,o),
(194,905,o),
(235,905,cs),
(271,905,o),
(287,893,o),
(287,869,cs),
(287,853,o),
(270,838,o),
(232,820,c)
);
}
);
vertWidth = 1000;
width = 500;
}
);
unicode = 777;
},
{
color = 4;
glyphname = horncomb;
kernLeft = quote;
kernRight = quote;
lastChange = "2021-05-05 04:42:54 +0000";
layers = (
{
anchors = (
{
name = _topright;
pos = (208,721);
}
);
layerId = "E27A6A66-A1F8-4E1B-8224-7C0FE77551F2";
shapes = (
{
closed = 1;
nodes = (
(325,652,o),
(370,688,o),
(370,752,cs),
(370,770,o),
(367,790,o),
(360,808,c),
(285,808,l),
(289,798,o),
(293,778,o),
(293,767,cs),
(293,738,o),
(275,721,o),
(245,721,cs),
(208,721,l),
(215,658,l),
(225,654,o),
(234,652,o),
(243,652,cs)
);
}
);
vertWidth = 1000;
width = 500;
}
);
unicode = 795;
},
{
color = 4;
glyphname = cedillacomb;
kernLeft = underscore;
kernRight = underscore;
lastChange = "2021-11-23 11:13:09 +0000";
layers = (
{
anchors = (
{
name = _cedi;
pos = (250,0);
}
);
layerId = "E27A6A66-A1F8-4E1B-8224-7C0FE77551F2";
shapes = (
{
closed = 1;
nodes = (
(341,-218,o),
(383,-186,o),
(383,-130,cs),
(383,-76,o),
(345,-24,o),
(276,21,c),
(206,0,l),
(272,-39,o),
(309,-81,o),
(309,-117,cs),
(309,-144,o),
(289,-153,o),
(262,-153,cs),
(243,-153,o),
(226,-150,o),
(211,-145,c),
(211,-211,l),
(228,-216,o),
(247,-218,o),
(268,-218,cs)
);
}
);
vertWidth = 1000;
width = 500;
}
);
unicode = 807;
},
{
color = 4;
glyphname = ogonekcomb;
kernLeft = underscore;
kernRight = underscore;
lastChange = "2024-12-27 12:47:49 +0000";
layers = (
{
anchors = (
{
name = _ogonek;
pos = (250,0);
}
);
layerId = "E27A6A66-A1F8-4E1B-8224-7C0FE77551F2";
shapes = (
{
closed = 1;
nodes = (
(253,-218,o),
(272,-216,o),
(289,-211,c),
(289,-145,l),
(274,-150,o),
(257,-153,o),
(238,-153,cs),
(211,-153,o),
(191,-144,o),
(191,-117,cs),
(191,-81,o),
(228,-39,o),
(294,0,c),
(224,21,l),
(155,-24,o),
(117,-76,o),
(117,-130,cs),
(117,-186,o),
(159,-218,o),
(232,-218,cs)
);
}
);
vertWidth = 1000;
width = 500;
}
);
unicode = 808;
},
